<svg width="128" height="128" viewBox="0 0 128 128" fill="none" xmlns="http://www.w3.org/2000/svg">
<path d="M0 28C0 12.536 12.536 0 28 0H100C115.464 0 128 12.536 128 28V100C128 115.464 115.464 128 100 128H28C12.536 128 0 115.464 0 100V28Z" fill="#0B0B0B"/>
<path d="M81.6591 51.4773C81.0909 49.6364 80.3068 47.9886 79.3068 46.5341C78.3295 45.0568 77.1477 43.7955 75.7614 42.75C74.3977 41.7045 72.8295 40.9205 71.0568 40.3977C69.2841 39.8523 67.3523 39.5795 65.2614 39.5795C61.5114 39.5795 58.1705 40.5227 55.2386 42.4091C52.3068 44.2955 50 47.0682 48.3182 50.7273C46.6591 54.3636 45.8295 58.7955 45.8295 64.0227C45.8295 69.2955 46.6591 73.7614 48.3182 77.4205C49.9773 81.0795 52.2841 83.8636 55.2386 85.7727C58.1932 87.6591 61.625 88.6023 65.5341 88.6023C69.0795 88.6023 72.1477 87.9205 74.7386 86.5568C77.3523 85.1932 79.3636 83.2614 80.7727 80.7614C82.1818 78.2386 82.8864 75.2841 82.8864 71.8977L85.75 72.3409H66.7955V62.4545H95.125V70.8409C95.125 76.8182 93.8523 81.9886 91.3068 86.3523C88.7614 90.7159 85.2614 94.0795 80.8068 96.4432C76.3523 98.7841 71.2386 99.9545 65.4659 99.9545C59.0341 99.9545 53.3864 98.5114 48.5227 95.625C43.6818 92.7159 39.8977 88.5909 37.1705 83.25C34.4659 77.8864 33.1136 71.5227 33.1136 64.1591C33.1136 58.5227 33.9091 53.4886 35.5 49.0568C37.1136 44.625 39.3636 40.8636 42.25 37.7727C45.1364 34.6591 48.5227 32.2955 52.4091 30.6818C56.2955 29.0455 60.5227 28.2273 65.0909 28.2273C68.9545 28.2273 72.5568 28.7955 75.8977 29.9318C79.2386 31.0455 82.2045 32.6364 84.7955 34.7045C87.4091 36.7727 89.5568 39.2273 91.2386 42.0682C92.9205 44.9091 94.0227 48.0455 94.5455 51.4773H81.6591Z" fill="white"/>
</svg>
