<?xml version="1.0" encoding="utf-8" ?>
<svg xmlns="http://www.w3.org/2000/svg" xmlns:xlink="http://www.w3.org/1999/xlink" width="1024" height="1024">
	<path fill="#FEFEFE" d="M0 0L1024 0L1024 1024L0 1024L0 0Z"/>
	<path fill="#080A0C" d="M629.929 513.793C632.532 513.585 635.976 512.931 638.508 513.581C640.061 513.98 641.03 514.703 641.877 516.075C642.526 520.68 642.208 525.59 642.193 530.238L642.118 554.273L641.805 636.741L641.323 774.272C641.279 781.484 642.565 806.392 641.005 811.878C639.432 813.327 637.892 814.098 635.737 814.324C628.687 815.062 621.178 814.563 614.064 814.77L570.627 816.404Q482.909 820.108 395.124 821.554C390.999 821.829 386.051 822.889 382.544 820.256C381.364 818.564 381.475 816.315 381.442 814.321Q381.207 779.001 381.374 743.681L380.993 624.952Q381.146 600.2 380.835 575.45C380.537 560.457 379.449 544.223 380.745 529.349C382.287 527.718 385.65 527.463 387.855 527.22C394.169 526.527 400.625 526.395 406.971 525.996Q431.65 524.433 456.352 523.296L558.32 517.65Q594.146 516.117 629.929 513.793Z"/>
	<path fill="#FEFEFE" d="M629.761 519.72C631.67 519.459 633.707 519.621 635.636 519.636C636.624 530.663 635.603 543.392 635.419 554.57L634.601 617.008L632.517 808.062L392.315 813.534L388.947 814.347L386.474 533.332C401.839 532.143 417.348 531.647 432.742 530.756L523.751 525.555C559.073 523.765 594.496 522.403 629.761 519.72Z"/>
	<path fill="#080A0C" d="M614.889 528.711C617.878 528.447 620.949 528.497 623.952 528.42L624.529 776.568C616.76 777.429 608.825 777.627 601.017 778.089Q578.039 779.582 555.038 780.662L452.972 787.387C443.017 788.055 413.201 788.538 406.106 791.632C405.175 791.324 404.621 791.011 403.865 790.388C402.061 786.452 402.302 761.697 402.191 755.045Q401.033 681.909 398.38 608.812Q397.954 589.202 397.187 569.603C396.781 560.1 395.876 550.377 396.104 540.881C397.126 539.749 399.159 539.635 400.611 539.446C406.352 538.699 412.38 538.815 418.169 538.493L465.003 536.234C514.949 533.425 564.951 531.74 614.889 528.711Z"/>
	<path fill="#FEFEFE" d="M607.322 760.849C607.449 760.963 607.592 761.061 607.703 761.191C609.346 763.132 609.402 767.29 609.066 769.714L607.665 770.72C606.695 770.556 606.319 770.479 605.459 769.945C605.58 766.935 606.873 763.913 607.322 760.849Z"/>
	<path fill="#FEFEFE" d="M609.777 534.712C612.669 534.441 615.675 534.526 618.585 534.46C618.559 574.751 617.658 615.106 618.501 655.384C612.287 644.339 606.905 632.841 600.681 621.794C593.605 609.234 585.586 597.474 577.189 585.778C574.688 582.294 570.983 575.578 567.022 573.909L566.273 574.221C565.914 576.189 567.06 578.46 567.651 580.344C571.227 591.756 574.282 603.739 576.432 615.5C580.394 637.173 582.06 659.398 584.101 681.318C584.998 690.945 585.379 700.811 587.145 710.317C589.773 704.958 591.828 699.298 594.437 693.905C593.452 699.857 587.384 717.749 589.953 722.162C594.027 721.905 592.799 713.111 596.37 710.952C596.999 714.204 593.662 720.049 592.454 723.264C591.503 725.797 590.47 728.529 591.666 731.09L592.814 731.412C595.357 729.027 595.527 724.49 597.605 721.722C598.2 720.928 598.239 720.947 599.254 720.86C601.763 727.076 594.077 738.536 595.56 745.539L596.253 745.576C599.47 742.622 600.711 737.759 602.421 733.837C601.847 737.673 602.327 743.145 600.883 746.554C599.448 749.941 597.995 755.049 598.769 758.687L600.061 758.52C602.859 755.694 604.526 750.564 606.209 746.953C604.226 754.975 602.564 763.074 600.631 771.11C594.27 771.888 588.052 772.591 581.631 772.517C575.795 766.694 570.891 760.274 565.629 753.956C570.591 757.439 576.789 763.787 582.967 764.578L583.228 763.93C580.86 760.001 576.739 756.638 573.519 753.322C567.809 747.442 562.212 741.064 557.986 734.033C561.994 737.94 566.788 742.842 571.566 745.711C572.537 746.294 573.203 746.712 574.326 746.382C573.218 742.082 561.066 728.26 557.693 723.109Q551.147 713.094 546.237 702.183C540.788 690.195 536.088 676.658 533.627 663.751C532.262 656.597 532.231 648.003 529.72 641.308L529.094 641.053C527.41 646.401 527.336 653.176 526.739 658.775C523.834 685.994 522.956 713.166 522.995 740.528C525.473 738.106 527.912 735.676 530.253 733.12C529.25 735.605 528.098 737.421 526.58 739.587C524.547 742.489 521.585 746.76 522.451 750.442C522.674 751.39 522.601 751.093 523.516 751.653C527.077 750.931 531.349 744.531 534.114 741.918C531.915 746.881 529.245 751.636 526.921 756.542C525.909 758.68 524.473 761.584 525.314 763.918L526.371 763.927C530.691 761.499 533.512 757.164 536.494 753.318C535.441 756.992 533.939 760.559 532.563 764.124C531.086 767.813 529.664 771.49 528.415 775.263C518.136 776.744 507.658 777.321 497.279 777.516C493.785 774.023 486.064 768.781 483.757 765.026C483.185 764.095 483.394 763.565 483.634 762.613C487.991 761.936 493.431 769.706 498.307 770.233L498.965 769.691L498.966 768.334C495.755 762.363 487.596 757.68 481.652 754.931L480.009 750.153C483.545 751.607 486.867 754.05 490.59 754.972C491.804 755.273 492.41 755.332 493.516 754.686C493.603 754.229 493.699 753.9 493.609 753.411C492.616 748.014 480.164 744.797 476.273 740.879C475.14 739.738 474.572 738.513 474.618 736.884C480.164 738.54 484.374 745.462 490.043 747.047C490.983 747.31 490.597 747.311 491.482 746.804C491.824 742.506 486.993 740.519 487.029 736.516C487.616 735.606 488.121 734.951 488.224 733.851C486.385 730.756 483.469 728.149 481.224 725.32C479.412 723.037 477.857 720.322 475.847 718.227C475.209 717.562 474.368 717.149 473.527 716.802C473.371 716.738 473.21 716.69 473.052 716.634C471.504 713.56 471.194 707.321 470.294 703.65C472.475 706.872 475.583 714.284 479.161 715.704C479.922 716.006 480.078 715.781 480.78 715.525C481.355 714.268 481.056 713.528 480.544 712.286C478.468 707.249 475.671 702.293 473.382 697.318C469.23 688.298 465.868 679.27 463.029 669.756Q458.072 653.653 455.45 637.009C454.434 630.227 454.662 622.471 452.612 615.973L451.864 615.742C451.779 615.847 451.684 615.944 451.61 616.056C446.131 624.359 438.021 719.818 439.562 731.857C441.11 732.645 441.222 731.119 442.851 731.696C443.437 735.199 439.791 740.392 438.689 743.77C438.088 745.614 436.832 748.75 437.756 750.535C440.395 749.64 443.301 742.811 444.797 740.264C444.002 748.898 440.725 756.619 438.692 764.97C439.146 766.167 439.12 766.44 440.177 767.123C441.337 766.183 444.85 758.528 446.856 755.944C446.01 761.825 441.995 774.162 443.698 779.384C444.098 780.613 443.992 779.875 444.024 781.124C440.682 781.915 436.532 781.557 433.056 781.73Q421.349 782.309 409.652 783.067C408.868 760.963 408.741 738.784 408.164 716.666Q405.943 630.568 401.948 544.535C428.556 544.093 455.196 542.135 481.772 540.839Q545.797 538.247 609.777 534.712Z"/>
	<path fill="#080A0C" d="M966.61 178.73L967.333 178.706C969.914 178.633 971.712 178.396 973.712 180.271C974.29 181.453 974.668 182.417 974.634 183.753C974.535 187.75 973.594 191.893 973.316 195.938C972.111 213.52 970.521 231.108 969.096 248.677L955.852 411.442L952.571 455.225C951.935 464.406 951.93 474.131 949.948 483.108C923.177 483.728 896.208 482.293 869.419 481.947L698.025 480.584C694.6 480.703 690.569 481.355 687.514 479.537C686.774 478.358 686.768 477.304 686.727 475.95C686.367 464.18 688.379 451.676 689.213 439.905C690.873 416.479 692.184 393.043 694.049 369.628L706.432 197.921C706.577 195.937 707.052 183.496 708.262 182.533C709.105 181.861 710.191 181.711 711.233 181.632C719.025 181.038 727.195 181.39 735.028 181.25Q759.818 180.606 784.616 180.435Q875.618 180.069 966.61 178.73Z"/>
	<path fill="#FEFEFE" d="M932.262 184.236C944.491 183.964 957.5 183.15 969.641 184.427C966.388 214.092 964.81 244.067 962.211 273.811L945.19 477.472L734.125 475.497Q713.218 475.549 692.313 475.295Q694.096 439.054 696.902 402.877L705.975 273.435Q709.335 230.161 711.518 186.811C724.403 186.182 737.426 186.512 750.336 186.196Q797.819 185.082 845.312 184.596Q888.788 184.648 932.262 184.236Z"/>
	<path fill="#080A0C" d="M904.43 191.733C922.363 191.357 940.475 191.222 958.406 191.646C959.701 192.562 960.905 193.61 962.129 194.621Q955.993 283.139 947.319 371.444L943.103 419.566C942.467 426.604 942.234 433.85 941.163 440.831C940.858 442.82 940.473 444.596 939.218 446.21C932.666 447.463 925.25 446.956 918.558 447.006L877.789 447.029Q837.928 446.954 798.071 447.496C786.664 447.698 775.279 448.308 763.875 448.545C748.871 448.598 733.913 449.206 718.92 449.645C716.223 449.724 710.85 450.336 708.848 448.441C708.171 446.72 708.262 445.186 708.296 443.363C708.45 435.027 709.191 426.659 709.575 418.327L714.107 334.264L718.896 244.309C719.343 235.659 720.181 202.59 722.505 195.972C723.808 194.815 724.522 194.89 726.225 194.749C733.37 194.161 740.772 194.465 747.952 194.292L799.425 193.449L904.43 191.733Z"/>
	<path fill="#FEFEFE" d="M808.62 279.866C809.283 279.865 809.719 279.843 810.356 279.905C813.116 280.175 817.208 281.126 818.943 283.431C819.679 284.409 819.73 285.492 819.522 286.647L818.72 286.943C816.441 285.355 808.428 282.46 807.39 280.956L808.62 279.866Z"/>
	<path fill="#FEFEFE" d="M783.356 198.26L783.499 198.329L783.671 198.851C780.865 201.166 778.177 203.458 775.933 206.347C770.094 213.866 766.897 221.897 768.198 231.555C768.327 232.51 768.409 233.076 768.126 234.029C766.997 234.511 767.022 234.698 765.758 234.409C764.201 228.918 766.001 223.595 763.425 218.033C760.908 212.598 755.734 209.781 750.375 207.778Q748.956 207.392 747.512 207.109C739.234 205.415 732.666 206.621 725.604 211.324C725.38 207.174 725.841 202.978 726.142 198.839C745.193 199.133 764.303 198.539 783.356 198.26Z"/>
	<path fill="#FEFEFE" d="M879.372 196.725C892.235 196.255 905.256 196.419 918.13 196.573C915.016 199.692 913.222 203.008 911.216 206.876C903.704 203.819 895.066 203.974 887.397 206.421C876.688 209.837 869.769 217.728 864.817 227.483C861.985 234.909 861.806 241.226 862.742 249.027L855.493 245.585C859.701 235.876 863.765 226.116 862.733 215.281C861.993 207.511 858.197 202.079 852.414 197.229C861.367 197.369 870.423 197.023 879.372 196.725Z"/>
	<path fill="#FEFEFE" d="M737.831 211.162C739.566 211.055 741.276 211.095 743.001 211.336C748.102 212.046 754.098 213.866 757.161 218.271C764.633 229.016 756.568 236.777 754.964 246.422L755.536 247.189C760.511 249.247 762.182 239.872 766.815 238.719C769.108 238.148 770.907 238.925 772.79 240.173C779.492 244.615 783.979 249.546 785.601 257.686C787.275 266.088 785.431 276.862 780.231 283.785C777.395 287.562 773.745 290.587 771.107 294.56C770.993 294.733 770.884 294.909 770.772 295.083L768.655 299.398L768.003 298.63C762.007 291.695 753.985 287.214 744.749 286.607C734.813 285.956 727.938 290.559 720.863 296.737C722.407 279.116 722.876 261.258 723.719 243.583C724.117 235.243 723.98 226.426 725.413 218.197C729.125 214.365 732.527 212.272 737.831 211.162Z"/>
	<path fill="#FEFEFE" d="M822.614 197.769C828.039 197.589 840.198 196.106 844.959 198.38C850.212 200.889 855.352 207.28 856.95 212.744C860.252 224.031 854.898 234.665 849.825 244.391C843.359 244.564 837.63 245.289 832.266 249.314C823.17 256.14 820.483 266.193 818.933 276.907C817.481 276.229 816.003 275.505 814.469 275.034C810.385 273.781 807.048 274.438 803.323 276.351C802.074 277.208 800.952 278.188 799.806 279.174C795.758 279.418 792.008 279.879 788.039 280.733C791.483 272.287 792.431 261.977 789.989 253.143C787.555 244.338 781.912 239.645 774.344 235.276C773.692 233.114 773.223 230.811 773.143 228.552C772.837 219.914 777.18 212.189 782.994 206.134C785.726 203.289 788.882 200.522 792.59 199.06C798.992 196.535 814.885 197.928 822.614 197.769Z"/>
	<path fill="#FEFEFE" d="M795.282 285.139C801.63 284.334 807.294 285.948 812.738 289.169C818.074 292.326 821.651 297.257 823.093 303.283C825.927 315.126 820.234 327.573 814.233 337.441C807.63 340.775 801.958 344.314 797.476 350.344C791.36 358.572 789.597 368.343 791.041 378.372C780.653 378.167 772.628 378.926 763.708 384.692C756.593 389.292 750.371 396.265 748.671 404.768C745.82 419.03 753.351 431.88 760.714 443.314C749.986 443.594 739.213 443.495 728.478 443.623C723.758 444.096 718.945 444.119 714.204 444.306Q715.963 394.599 718.702 344.936C719.144 336.282 719.25 314.638 721.129 307.544C721.988 304.3 724.47 301.254 726.812 298.906C731.335 294.369 736.796 292.077 743.241 292.189C751.858 292.338 763.759 298.172 767.037 306.8C768.211 309.89 768.206 314.293 770.49 316.745C771.838 317.269 772.102 317.326 773.528 317.118C776.99 314.073 770.799 303.865 777.67 294.542C781.996 288.672 788.358 286.282 795.282 285.139Z"/>
	<path fill="#FEFEFE" d="M928.179 196.544C937.593 196.454 947.312 196.122 956.69 196.911C956.477 216.306 954.178 235.951 952.47 255.278L946.399 327.527C944.511 325.012 942.638 322.467 940.652 320.028C934.594 312.587 925.458 308.044 915.945 307.129C903.512 305.932 891.342 309.431 881.697 317.376C872.295 325.12 865.835 336.177 864.697 348.328C856.743 341.208 851.194 337.965 840.813 335.366C834.648 334.145 828.798 334.37 822.563 334.873C825.682 327.624 828.816 320.202 829.321 312.23C830.391 295.349 819.12 282.801 827.626 263.658C830.099 258.092 834.892 253.179 840.642 251.02C843.969 249.771 847.565 249.548 851.052 250.152C864.002 252.392 866.394 265.052 868.711 265.582C870.089 265.897 870.717 265.523 871.865 264.9C872.36 264.076 872.761 263.742 872.726 262.747C872.594 258.975 867.882 251.062 867.31 244.582C866.531 235.756 869.365 227.41 875.114 220.701Q875.638 220.086 876.192 219.498Q876.746 218.911 877.329 218.352Q877.912 217.793 878.523 217.264Q879.134 216.735 879.77 216.238Q880.407 215.741 881.068 215.277Q881.729 214.812 882.412 214.382Q883.096 213.952 883.8 213.556Q884.505 213.161 885.228 212.802Q885.952 212.443 886.693 212.121Q887.433 211.799 888.19 211.515Q888.946 211.231 889.715 210.985Q890.485 210.74 891.266 210.534Q892.047 210.327 892.837 210.161Q893.628 209.994 894.425 209.868Q895.223 209.742 896.026 209.656Q896.829 209.57 897.636 209.525C900.778 209.336 905.412 209.187 907.814 211.52C910.179 213.818 908.84 217.603 908.96 220.528C909.018 221.921 909.5 222.76 910.517 223.701C912.025 224.051 912.318 223.964 913.814 223.51C915.593 219.848 914.465 212.716 916.714 207.523C919.119 201.973 922.737 198.826 928.179 196.544Z"/>
	<path fill="#FEFEFE" d="M904.78 312.642C909.909 312.348 914.998 312.153 920.017 313.447C933.021 316.799 938.75 326.472 945.123 337.307Q940.944 389.194 935.826 440.996C908.564 442.925 880.649 441.889 853.316 441.784Q810.581 441.731 767.872 443.251C763.421 438.428 759.895 432.372 757.017 426.505C754.966 421.382 753.408 416.006 753.43 410.448C753.457 403.929 756.111 398.079 760.73 393.517C768.924 385.425 780.183 383.169 791.278 383.354C794.055 389.29 796.896 397.071 803.275 399.94L804.679 398.684C805.149 393.75 800.854 388.726 798.962 384.422C795.653 376.892 794.919 367.341 797.978 359.626C801.008 351.983 807.796 346.483 815.21 343.349C828.923 337.551 848.43 338.669 858.718 350.596C861.587 353.922 866.529 365.328 869.29 366.439C870.49 366.37 870.957 366.225 871.92 365.501C873.423 361.846 870.416 356.712 869.674 352.981C868.212 345.631 873.657 334.956 877.808 329.186C884.388 320.039 893.75 314.458 904.78 312.642Z"/>
	<path fill="#080A0C" d="M639.527 176.713C640.128 176.649 640.732 176.583 641.335 176.55C642.765 176.474 643.523 176.664 644.572 177.632C645.592 184.676 644.444 192.989 644.199 200.14L642.81 245.565Q640.48 321.853 636.548 398.076C635.459 423.162 635.251 448.333 633.923 473.399C633.801 475.712 633.761 478.277 632.956 480.469C630.998 481.584 628.881 481.801 626.668 481.927C563.023 485.551 499.176 487.949 435.474 490.428C421.264 490.981 407.062 492.018 392.863 492.826C385.977 493.218 378.395 494.274 371.539 493.545C370.269 492.256 369.89 491.125 369.697 489.371C368.62 479.577 369.356 468.274 369.256 458.35L368.978 382.843L368.809 263.232L368.764 221.163C368.747 213.445 368.249 205.403 368.9 197.733C368.992 196.644 368.899 195.963 369.729 195.158C370.725 194.192 372.231 194.064 373.536 193.912C380.279 193.123 387.28 193.173 394.078 192.686L449.995 188.876L573.723 180.531C595.649 179.144 617.619 178.364 639.527 176.713Z"/>
	<path fill="#FEFEFE" d="M636.32 182.223C637.918 182.182 638.707 181.854 639.98 182.877C640.501 184.342 640.679 185.641 640.701 187.199C640.793 193.621 639.687 200.601 639.338 207.079Q638.293 228.268 637.736 249.476Q634.994 328.394 630.56 407.235L627.677 475.995Q590.354 478.087 553.001 479.532L377.875 487.648C377.277 487.691 376.799 487.497 376.227 487.336C375.636 486.119 375.601 485.033 375.541 483.704C375.268 477.639 375.556 471.49 375.531 465.414L375.374 417.698L374.659 199.646Q420.495 197.556 466.215 193.689L549.424 187.72Q592.821 184.164 636.32 182.223Z"/>
	<path fill="#080A0C" d="M618.822 193.225C621.376 193.045 623.859 193.374 626.392 193.656C626.662 200.458 626.16 207.45 625.979 214.263L625.073 251.53C624.605 272.919 622.311 436.233 619.598 441.209C618.817 441.89 618.169 442.146 617.172 442.336C613.108 443.11 608.638 443.05 604.5 443.305L582.17 444.684C556.091 446.269 530.044 447.722 503.989 449.71Q466.007 452.541 428.07 455.935Q418.927 456.775 409.816 457.915C404.903 458.537 399.158 459.784 394.231 459.427C392.726 459.318 392.266 458.964 391.266 457.887C390.193 449.549 390.155 440.879 389.819 432.469Q388.826 411.667 388.237 390.849Q386.14 326.22 383.205 261.623L381.539 226.316C381.271 221.381 380.494 216.321 380.496 211.397C380.497 209.899 380.569 208.729 381.171 207.352C386.96 205.633 394.864 206.007 400.959 205.621L440.387 203.152L528.917 198.041C558.878 196.216 588.813 194.072 618.822 193.225Z"/>
	<path fill="#FEFEFE" d="M562.689 361.489C564.294 361.416 566.104 361.412 567.565 362.172C568.704 362.764 569.669 363.795 569.934 365.083C570.173 366.246 569.766 367.47 569.013 368.364C567.639 369.993 565.594 370.385 563.606 370.729C561.651 370.616 558.7 370.486 557.171 369.13C556.083 368.166 556.175 367.625 556.199 366.308C557.668 363.551 559.976 362.69 562.689 361.489Z"/>
	<path fill="#FEFEFE" d="M453.329 374.702C455.23 374.687 458.257 375.076 459.824 376.242C460.968 377.093 461.046 377.743 461.337 379.035C461.054 380.183 460.81 380.931 460.016 381.834C457.277 384.947 453.913 385.026 450.059 385.292C447.937 385.052 445.497 384.632 443.568 383.689C442.105 382.975 441.602 382.169 441.059 380.683C441.26 379.676 441.419 379.124 442.1 378.316C444.754 375.167 449.562 375.001 453.329 374.702Z"/>
	<path fill="#FEFEFE" d="M509.432 344.576C511.401 344.467 513.735 344.243 515.655 344.717C517.722 345.228 519.099 346.513 520.103 348.322C520.194 349.71 520.262 350.505 519.45 351.696C517.797 354.121 514.268 354.489 511.617 354.937C509.367 355.104 506.606 355.451 504.431 354.802C502.662 354.275 501.532 353.291 500.701 351.656C500.606 350.735 500.539 350.081 500.965 349.212C502.479 346.125 506.414 345.347 509.432 344.576Z"/>
	<path fill="#FEFEFE" d="M543.306 390.607C545.709 390.397 548.422 390.08 550.793 390.607C552.708 391.033 555.118 392.141 555.96 394.043C556.495 395.254 556.23 396.399 555.644 397.521C553.96 400.745 549.513 401.604 546.314 402.435C543.28 402.691 539.805 403.165 536.877 402.115C535.049 401.46 533.989 400.614 533.209 398.81C533.188 397.899 533.172 397.21 533.626 396.378C535.45 393.04 539.939 391.76 543.306 390.607Z"/>
	<path fill="#FEFEFE" d="M608.549 198.714C612.997 198.403 617.524 198.437 621.985 198.309C621.237 215.87 620.127 233.45 619.702 251.022C619.039 278.396 619.15 305.827 618.601 333.216C593.626 346.873 563.912 349.989 537.573 338.264C524.42 332.408 512.353 325.005 497.479 325.342C470.243 325.96 446.19 341.252 419.882 346.773C410.792 348.265 401.736 348.863 392.533 348.879L388.947 257.968C388.293 242.955 386.716 227.569 386.877 212.581C395.505 211.125 404.913 211.133 413.659 210.525Q440.711 208.563 467.788 206.986L608.549 198.714Z"/>
	<path fill="#080A0C" d="M533.747 264.374C535.026 264.375 536.201 264.599 537.442 264.884C539.451 265.345 542.199 265.923 543.224 267.946C543.603 268.695 542.998 269.939 542.779 270.727C540.261 270.455 535.727 270.092 533.947 268.116C532.857 266.905 533.461 265.774 533.747 264.374Z"/>
	<path fill="#080A0C" d="M602.574 256.83C603.545 256.931 604.23 257.281 605.133 257.653C605.411 258.216 605.767 258.496 605.483 259.133C604.39 261.578 599.009 263.662 596.681 264.877C596.55 264.897 596.421 264.948 596.289 264.936C595.191 264.838 594.959 264.303 594.327 263.505L594.547 262.447C596.733 260.092 599.843 258.508 602.574 256.83Z"/>
	<path fill="#080A0C" d="M592.332 245.34C592.472 245.434 592.625 245.512 592.752 245.622C593.295 246.09 593.82 246.469 593.786 247.227C593.652 250.133 589.239 254.314 587.216 256.248L585.714 255.502C585.322 254.798 585.058 254.629 585.176 253.772C585.66 250.234 589.591 247.295 592.332 245.34Z"/>
	<path fill="#080A0C" d="M541.18 293.463C542.426 293.332 543.099 293.326 544.267 293.799L544.307 294.747C542.067 297.639 538.638 299.258 535.427 300.843C533.968 300.813 532.825 300.854 531.504 300.128L531.438 299.308C533.31 296.232 538.006 294.792 541.18 293.463Z"/>
	<path fill="#080A0C" d="M527.815 279.55C528.523 279.441 529.22 279.373 529.936 279.344C532.71 279.231 537.685 278.5 539.853 280.514C540.065 281.829 539.922 282.024 539.382 283.262C536.04 283.557 530.516 284.764 527.71 282.787C527.164 281.307 527.399 281.025 527.815 279.55Z"/>
	<path fill="#080A0C" d="M595.357 289.992Q596.906 289.961 598.454 290.035C601.435 290.203 604.893 290.725 606.979 293.009C607.337 294.413 607.355 294.498 606.831 295.843C603.689 295.771 600.121 295.288 597.234 293.965C595.886 293.348 595.136 292.703 594.657 291.308L595.357 289.992Z"/>
	<path fill="#080A0C" d="M607.663 273.202C609.02 272.984 610.13 273.31 611.362 273.842C611.93 274.767 611.714 274.784 611.523 275.798C609.029 278.144 607.111 277.933 603.876 278.064C602.933 278.125 601.917 278.221 600.977 278.103C599.688 277.94 598.654 277.29 597.816 276.328L598.304 275.559C601.121 273.95 604.502 273.618 607.663 273.202Z"/>
	<path fill="#080A0C" d="M563.11 304.227C563.586 304.349 564.056 304.599 564.507 304.794C565.218 306.293 565.278 307.728 565.307 309.37C565.368 312.763 565.261 316.246 562.835 318.756C561.313 317.534 560.688 317.097 560.446 315.052C560.004 311.322 560.73 307.196 563.11 304.227Z"/>
	<path fill="#080A0C" d="M577.047 305.267C578.082 305.263 578.907 305.373 579.91 305.628C581.866 307.444 583.036 310.19 583.658 312.744C583.726 313.021 583.785 313.301 583.851 313.578C584.378 315.773 584.707 317.058 584.038 319.254C583.308 319.278 582.775 319.292 582.136 318.864C578.845 316.66 577.853 308.944 577.047 305.267Z"/>
	<path fill="#080A0C" d="M587.871 298.837C591.842 299.086 595.752 301.852 598.386 304.722C599.893 306.365 599.776 307.228 599.651 309.318C598.39 309.491 597.433 309.694 596.283 308.98C593.206 307.069 588.45 302.359 587.871 298.837Z"/>
	<path fill="#080A0C" d="M555.703 239.735C556.357 239.816 557.011 239.99 557.656 240.129C558.052 240.631 558.395 241.069 558.648 241.663C560.126 245.132 561.129 251.383 559.658 254.843C558.884 254.608 558.261 254.289 557.544 253.921C556.782 252.865 556.357 251.936 555.981 250.68C555.089 247.691 554.215 242.599 555.703 239.735Z"/>
	<path fill="#080A0C" d="M550.636 300.756C551.222 300.851 551.82 301.055 552.394 301.212L552.874 302.42C552.471 306.626 549.186 310.512 546.324 313.434L544.533 312.335C544.1 311.544 543.834 311.378 543.939 310.441C544.332 306.922 548.038 302.936 550.636 300.756Z"/>
	<path fill="#080A0C" d="M540.216 249.183C543.874 250.657 547.668 254.503 549.321 258.072C550.024 259.589 549.478 260.256 548.861 261.655C548.6 261.546 548.337 261.445 548.08 261.33C545.51 260.187 539.802 255.279 539.26 252.448C538.961 250.888 539.43 250.464 540.216 249.183Z"/>
	<path fill="#080A0C" d="M573.39 238.121L575.058 238.872C575.641 239.521 575.981 239.978 576.215 240.842C577.142 244.258 575.334 250.803 573.62 253.779C572.541 253.626 572.188 253.36 571.402 252.617C570.159 249.292 570.801 246.063 571.411 242.693C571.776 240.67 571.981 239.667 573.39 238.121Z"/>
	<path fill="#080A0C" d="M568.046 260.076C572.123 259.789 575.704 260.145 579.484 261.886C584.284 264.098 588.07 268.423 589.786 273.404C591.57 278.582 590.756 283.838 588.261 288.638C584.966 294.976 580.234 298.048 573.614 300.035C568.76 300.834 564.248 300.729 559.796 298.34C555.332 295.943 552.376 291.757 550.938 286.959C549.286 281.446 549.694 275.348 552.607 270.324C556.081 264.33 561.626 261.734 568.046 260.076Z"/>
	<path fill="#080A0C" d="M312.461 530.216C313.933 530.16 315.542 530.167 317.01 530.314C318.467 530.46 320.375 531.263 321.123 532.617C321.902 534.026 321.906 536.388 321.992 537.979Q323.552 572.877 324.745 607.79L328.782 701.46L333.389 800.573C333.608 805.825 335.576 823.263 334.222 827.35C332.956 828.437 331.693 828.584 330.048 828.805C324.019 829.613 317.728 829.771 311.654 830.224L275.249 832.929L125.117 843.308C106.621 844.686 87.7616 845.05 69.3794 847.286C67.2686 847.584 64.5412 848.239 62.6502 846.961C61.1715 845.961 60.7998 844.048 60.5135 842.408C58.8994 833.159 59.2725 821.514 58.8035 811.971L55.6273 744.578L49.5568 617.011C48.5603 596.043 47.1679 574.991 46.6073 554.012C46.5406 551.517 46.318 546.791 47.7358 544.755C49.8819 543.511 52.1992 543.032 54.6351 542.718C63.5583 541.566 72.8629 541.462 81.8501 540.923Q110.221 539.12 138.624 537.948L312.461 530.216Z"/>
	<path fill="#FEFEFE" d="M312.762 536.242C313.364 536.187 313.808 536.332 314.391 536.472C315.19 537.95 315.253 539.652 315.371 541.301C316.353 555.046 316.42 568.975 316.925 582.756L319.481 645.339L326.215 821.276C310.711 821.841 295.214 823.56 279.769 824.939Q260.357 826.536 240.915 827.723L68.5113 838.139C67.7771 814.851 65.9575 791.486 64.738 768.207L58.5385 645.37Q56.8973 614.551 55.7566 583.71C55.2973 572.594 55.4565 560.871 53.9254 549.867C62.299 549.797 70.7641 548.934 79.1286 548.436L127.63 545.631L257.248 538.832Q284.995 537.313 312.762 536.242Z"/>
	<path fill="#080A0C" d="M296.971 542.713C299.054 542.561 301.174 542.747 303.258 542.844C305.358 552.245 305.022 562.868 305.475 572.502L307.957 632.098L312.431 727.776C313.387 745.696 315.049 763.669 315.37 781.611C315.417 784.234 315.345 786.829 314.663 789.378C311.003 791.556 275.756 792.881 269.087 793.441C217.639 797.762 166.129 801.452 114.914 808.128C106.159 809.269 89.391 810.466 82.004 813.257L77.5826 814.928C76.5702 814.317 75.3605 813.704 74.5758 812.809C73.5287 811.614 73.5325 810.029 73.4431 808.507C71.9747 783.519 71.3535 758.507 70.2385 733.507Q68.1752 695.128 65.6841 656.774L60.4509 586.994C59.8479 578.86 57.8142 565.518 58.742 557.973C59.7632 557.143 61.0206 557.043 62.2943 556.925C66.4819 556.539 70.7391 556.597 74.9417 556.324L125.075 553.446L296.971 542.713Z"/>
	<path fill="#FEFEFE" d="M189.259 728.579C191.276 728.398 193.327 728.203 195.303 728.755C206.218 731.807 216.356 750.752 229.244 756.937Q230.072 757.333 230.925 757.672Q231.777 758.012 232.651 758.292Q233.525 758.573 234.416 758.795Q235.306 759.016 236.21 759.176Q237.114 759.337 238.026 759.436Q238.938 759.535 239.855 759.573Q240.772 759.61 241.69 759.585Q242.607 759.561 243.521 759.474C261.939 757.749 261.693 739.613 276.48 734.655L277.193 734.422C283.837 736.105 289.903 741.217 295.759 744.694C299.168 746.719 302.753 748.387 306.05 750.603C306.541 755.104 306.836 759.584 307.074 764.102C302.94 760.627 299.193 756.404 294.706 753.395C281.666 744.652 271.847 761.08 262.635 767.317C259.68 769.317 256.585 770.565 253.075 771.191C240.912 773.36 226.302 770.816 216.833 762.532C212.406 758.658 208.557 754.063 203.692 750.705C198.661 747.233 194.881 746.133 188.908 747.177C178.319 750.519 173.713 763.83 163.937 770.031C159.066 773.121 153.417 775.091 147.752 776.091C123.029 780.455 119.164 759.744 107.114 757.488C95.7573 755.361 91.5307 772.23 83.7658 777.02C82.6587 777.704 82.0725 777.989 80.8206 777.629C79.9154 773.623 80.4819 768.793 80.5409 764.675C87.8846 757.165 92.9184 745.259 101.879 739.897C110.989 744.988 116.793 754.218 126.584 758.794C132.935 761.762 139.427 763.298 146.459 762.973C172.177 761.784 168.157 736.321 189.259 728.579Z"/>
	<path fill="#FEFEFE" d="M189.733 702.523C190.094 702.515 190.456 702.516 190.817 702.532C202.793 703.073 208.985 717.245 216.193 725.123C222.237 731.729 230.364 736.44 239.487 736.675C255.066 737.077 254.538 721.041 263.251 713.519C264.578 712.373 267.237 710.733 269.055 711.047C278.25 712.637 283.839 727.218 305.055 728.682C305.5 733.453 305.503 738.243 305.569 743.031C298.275 739.796 292.553 734.255 285.53 730.812C264.4 720.454 259.068 748.781 245.744 752.88C226.844 758.694 214.641 731.543 200.742 724.381C195.35 721.603 189.794 721.858 184.198 723.754C173.521 728.8 169.882 738.673 163.212 747.573C159.156 752.986 154.463 755.992 147.729 756.834C136.901 758.187 126.911 753.291 119.186 746.023C116.067 743.088 113.179 739.613 109.758 737.047C107.01 734.986 103.535 733.514 100.044 734.057C91.8049 735.34 85.048 749.385 80.3044 755.781L79.3154 736.005C83.9295 729.131 89.3742 717.038 96.976 713.411C98.5452 712.662 99.6309 712.91 101.035 713.886C103.744 715.769 105.752 718.641 107.826 721.173C113.743 728.395 120.46 735.26 129.487 738.4C134.842 740.262 140.812 740.661 146.416 739.939C171.752 736.674 170.122 711.878 189.072 702.832L189.733 702.523Z"/>
	<path fill="#FEFEFE" d="M188.418 673.104C188.624 673.084 188.829 673.048 189.036 673.043C201.872 672.722 210.394 685.392 218.796 693.404C225.014 699.334 231.654 704.062 240.688 703.658C249.703 703.255 251.825 696.774 257.347 691.326C268.104 680.712 278.973 697.645 288.355 701.894C293.646 704.29 298.807 704.507 304.509 704.477Q304.892 713.176 304.981 721.883C285.859 721.536 284.319 708.947 269.406 704.217C250.555 707.795 255.972 720.913 245.029 728.736C242.181 730.771 238.636 731.06 235.284 730.42C215.588 726.658 211.441 699.6 195.016 697.18C188.466 696.215 183.431 698.649 178.37 702.495C172.122 708.055 168.633 715.225 163.95 721.999C159.665 728.194 153.809 732.47 146.278 733.706C134.721 735.603 124.007 730.024 116.623 721.426C113.161 717.395 110.008 712.329 105.577 709.317C102.772 707.41 99.4946 706.55 96.1508 707.344C88.1674 709.241 82.101 719.133 78.189 725.66L76.9037 699.533C81.3676 693.543 85.817 683.312 93.8569 681.861C104.529 679.936 116.348 703.113 125.871 709.566C131.654 713.484 138.199 715.199 145.132 713.715C157.573 711.053 162.163 698.231 168.283 688.748C173.142 681.216 179.426 675.029 188.418 673.104Z"/>
	<path fill="#FEFEFE" d="M190.62 752.542C192.641 752.389 194.728 752.295 196.653 753.048C204.155 755.983 212.088 767.016 220.532 771.654C233.403 778.722 256.573 780.395 268.879 771.344C274.249 767.395 278.912 759.115 285.55 757.484C291.604 755.995 301.746 768.572 307.887 772.527C307.918 776.156 308.24 779.747 308.55 783.361C291.491 785.144 274.344 786.351 257.256 787.862C234.486 789.875 211.686 792.106 188.876 793.592C153.124 796.707 117.5 799.852 81.8667 804.178C81.6241 798.017 80.4138 790.49 81.376 784.478C94.0507 784.742 93.9602 769.456 103.217 764.865C108.978 762.007 114.829 771.48 118.672 774.748Q119.871 775.788 121.169 776.701Q122.468 777.614 123.852 778.391Q125.236 779.168 126.692 779.801Q128.148 780.433 129.66 780.915C144.206 785.625 164.978 779.987 175.351 768.861C180.368 763.48 183.152 756.216 190.038 752.822L190.62 752.542Z"/>
	<path fill="#FEFEFE" d="M292.299 548.715C294.176 548.447 296.218 548.714 298.109 548.813Q301.437 623.34 304.017 697.897C301.013 697.963 297.589 698.203 294.653 697.521C282.982 694.809 277.321 681.645 264.173 681.634C254.736 681.627 251.869 688.925 245.986 694.419C232.636 706.886 212.306 676.48 201.63 670.284C198.35 668.38 194.818 667.396 191.023 667.385C178.259 667.345 168.604 676.801 162.276 686.918C158.997 692.162 156.176 698.302 151.722 702.662C148.286 706.026 143.659 708.169 138.791 707.937C132.33 707.63 127.305 703.202 123.237 698.603C117.585 692.344 112.91 684.308 106.12 679.245C102.136 676.274 97.3514 674.631 92.367 675.487C84.9843 676.755 80.3913 683.132 76.2959 688.773C75.2138 683.409 75.1146 677.664 74.7254 672.209L72.7534 644.565C70.7949 618.015 67.8817 591.166 67.3628 564.563C77.4557 563.583 87.6323 563.192 97.7461 562.416L171.944 556.955L292.299 548.715Z"/>
	<path fill="#080A0C" d="M251.328 640.22C251.65 640.278 251.978 640.304 252.293 640.392C253.552 640.746 253.653 641.129 254.206 642.212C254.019 643.829 253.561 644.618 252.622 645.933C251.448 645.574 251.065 645.256 250.295 644.304C250.02 642.647 250.627 641.658 251.328 640.22Z"/>
	<path fill="#080A0C" d="M125.764 660.15C125.942 660.178 126.121 660.196 126.297 660.234C127.95 660.595 128.515 661.243 129.349 662.597C129.42 664.36 129.068 664.892 128.141 666.302C127.667 666.286 126.714 666.328 126.234 666.154C125.025 665.715 124.895 665.153 124.37 664.079C124.494 662.303 124.77 661.628 125.764 660.15Z"/>
	<path fill="#080A0C" d="M237.97 671.897C238.481 671.906 238.75 671.897 239.29 671.984C240.944 672.253 242.351 672.845 243.222 674.384C243.898 675.576 243.95 676.984 243.531 678.267C242.82 680.44 241.415 681.307 239.443 682.25C237.7 681.851 235.829 681.261 234.843 679.619C234.089 678.364 233.946 677.462 234.248 676.031C234.687 673.947 236.284 672.915 237.97 671.897Z"/>
	<path fill="#080A0C" d="M242.009 552.883Q242.522 552.871 243.034 552.884C245.016 552.931 246.542 553.07 247.922 554.669C248.758 555.637 249.172 556.739 248.978 558.034C248.668 560.113 247.402 561.415 245.786 562.602Q244.52 562.681 243.252 562.633C241.752 562.568 240.469 562.146 239.535 560.892C238.723 559.802 238.404 558.849 238.653 557.485C239.051 555.294 240.286 554.137 242.009 552.883Z"/>
	<path fill="#080A0C" d="M198.308 644.056C199.191 644.065 200.153 644.034 201.023 644.18C202.646 644.452 203.998 645.303 204.91 646.673C205.768 647.964 206.05 649.363 205.528 650.866C204.828 652.88 203.419 653.755 201.579 654.601C200.766 654.565 199.974 654.52 199.174 654.363C197.375 654.011 196.197 653.269 195.216 651.702C194.48 650.527 194.222 649.255 194.623 647.898C195.229 645.85 196.551 645.006 198.308 644.056Z"/>
	<path fill="#080A0C" d="M166.065 584.976C166.892 584.941 167.705 584.893 168.523 585.05C170.058 585.344 171.48 586.17 172.279 587.55C172.883 588.593 173.019 589.8 172.778 590.97C172.266 593.454 170.649 594.686 168.596 595.945C167.741 595.942 166.844 595.954 166 595.806C164.369 595.521 162.754 594.357 162.02 592.881C161.396 591.627 161.44 590.373 161.835 589.062C162.48 586.921 164.192 585.916 166.065 584.976Z"/>
	<path fill="#080A0C" d="M295.002 661.5C296.103 661.413 297.471 661.351 298.513 661.796C299.765 662.332 300.748 663.192 301.27 664.474C301.922 666.074 301.653 667.937 300.996 669.49C299.958 671.943 298.289 672.932 295.944 673.981C294.715 674.059 293.564 674.101 292.371 673.723C291.1 673.321 289.85 672.167 289.292 670.99C288.587 669.503 288.844 667.69 289.436 666.207C290.53 663.462 292.399 662.596 295.002 661.5Z"/>
	<path fill="#080A0C" d="M147.231 625.448C148.027 625.457 148.764 625.476 149.541 625.672C151.584 626.187 153.639 627.361 154.614 629.302C155.331 630.729 155.341 632.451 154.71 633.911C153.69 636.266 151.607 637.119 149.374 638.038C148.542 638.029 147.733 637.961 146.92 637.781C145.116 637.383 143.144 636.168 142.299 634.462C141.59 633.031 141.495 631.503 142.025 629.999C142.919 627.462 144.932 626.511 147.231 625.448Z"/>
	<path fill="#080A0C" d="M275.351 574.574C276.185 574.758 277.025 574.963 277.836 575.234C279.65 575.842 281.388 577.196 282.086 579.034C282.653 580.529 282.65 581.995 281.887 583.411C280.682 585.645 278.753 586.432 276.446 587.15C274.956 587.033 273.259 587.047 271.907 586.349C270.331 585.535 269.077 583.971 268.679 582.237C268.318 580.665 268.712 579.053 269.625 577.742C271.132 575.578 272.862 575.082 275.351 574.574Z"/>
	<path fill="#080A0C" d="M228.022 608.075C229.004 608.051 230.023 608.01 230.999 608.133C232.724 608.349 234.895 609.524 235.759 611.085C236.688 612.762 236.734 614.435 236.045 616.2C235.022 618.824 232.727 620.108 230.3 621.218C228.942 621.154 227.421 621.17 226.11 620.795C224.416 620.309 222.84 618.852 222.109 617.264C221.457 615.845 221.5 614.29 222.091 612.863C223.191 610.206 225.497 609.084 228.022 608.075Z"/>
	<path fill="#080A0C" d="M131.395 682.049C132.722 682.239 133.932 682.441 135.098 683.146C136.301 683.873 137.26 684.808 137.494 686.262C137.74 687.797 137.163 689.148 136.371 690.412C134.109 694.02 131.576 694.726 127.663 695.594C126.924 695.586 126.324 695.502 125.599 695.315C124.062 694.918 122.227 693.951 121.615 692.411C121.025 690.928 121.542 689.287 122.313 687.982C124.464 684.341 127.442 683.099 131.395 682.049Z"/>
	<path fill="#080A0C" d="M89.9166 617.082C91.1879 617.046 92.4875 616.994 93.7478 617.194C96.2233 617.587 98.5331 618.775 99.883 620.956Q100.064 621.251 100.214 621.563Q100.364 621.875 100.48 622.201Q100.596 622.527 100.678 622.864Q100.759 623.2 100.806 623.543Q100.852 623.886 100.862 624.232Q100.872 624.578 100.846 624.923Q100.82 625.268 100.758 625.609Q100.696 625.95 100.599 626.282C99.6679 629.576 97.334 631.326 94.4663 632.892C92.8206 633.018 91.0651 633.212 89.4613 632.735C87.2628 632.082 85.2073 630.504 84.1519 628.452C83.1537 626.512 83.0417 624.302 83.8748 622.279C85.0009 619.544 87.355 618.244 89.9166 617.082Z"/>
	<path fill="#080A0C" d="M106.143 565.58C107.483 565.476 108.995 565.393 110.284 565.839Q110.681 565.977 111.062 566.155Q111.444 566.332 111.805 566.547Q112.166 566.762 112.504 567.013Q112.841 567.264 113.152 567.547Q113.463 567.831 113.743 568.144Q114.023 568.458 114.27 568.798Q114.517 569.138 114.729 569.502Q114.94 569.865 115.114 570.248C116.128 572.522 116.009 575.208 115.038 577.474C113.839 580.274 111.745 581.53 109.044 582.662C107.97 582.582 106.86 582.51 105.811 582.262C103.337 581.678 101.087 579.994 99.8992 577.742Q99.7054 577.371 99.5519 576.982Q99.3984 576.593 99.2869 576.189Q99.1754 575.786 99.1072 575.373Q99.0389 574.961 99.0147 574.543Q98.9905 574.125 99.0106 573.707Q99.0307 573.289 99.0949 572.876Q99.159 572.462 99.2665 572.058Q99.374 571.654 99.5237 571.263C100.749 568.02 103.1 566.839 106.143 565.58Z"/>
	<path fill="#080A0C" d="M284.923 647.084C286.883 646.841 288.781 646.696 290.688 647.315C292.819 648.007 294.79 649.359 295.738 651.453Q295.866 651.742 295.964 652.043Q296.063 652.344 296.13 652.653Q296.198 652.962 296.234 653.276Q296.271 653.591 296.275 653.907Q296.28 654.224 296.253 654.539Q296.225 654.854 296.167 655.165Q296.108 655.476 296.018 655.78Q295.929 656.083 295.809 656.376C294.724 659.079 291.978 661.159 289.374 662.258C287.265 662.64 285.405 662.914 283.31 662.247C281.377 661.631 279.63 660.283 278.734 658.437C277.898 656.718 277.855 654.784 278.505 652.997C279.65 649.851 282.017 648.403 284.923 647.084Z"/>
	<path fill="#080A0C" d="M296.834 193.717C299.777 193.53 303.594 192.831 306.149 194.574C306.712 195.704 307.016 196.71 307.205 197.964C308.135 204.102 307.759 210.718 308.04 216.936C308.914 236.293 309.174 255.729 309.591 275.102C310.463 315.557 312.341 356.069 313.962 396.5L316.408 464.578L317.327 487.715C317.477 490.967 318.013 494.27 317.963 497.513C317.938 499.089 317.655 500.847 316.649 502.11C314.975 504.212 311.618 504.166 309.11 504.359C286.937 506.059 264.593 506.769 242.376 507.853L156.672 512.18L100.406 514.587C88.0279 515.123 75.5719 516.056 63.1763 515.769C60.2324 515.701 56.2157 515.829 53.9019 513.827C50.3692 504.087 50.7133 489.561 49.7154 479.028Q45.1035 430.687 41.6919 382.246L33.5464 275.502C32.1753 258.051 30.1938 240.666 29.3342 223.173C29.1246 218.908 28.5867 214.023 29.8794 209.899C31.5928 208.019 37.1715 207.456 39.7083 207.163C52.9608 205.629 66.4804 205.256 79.8073 204.607L122.253 202.264L296.834 193.717Z"/>
	<path fill="#FEFEFE" d="M290.632 201.707C293.901 201.403 297.264 201.451 300.549 201.358C302.477 234.604 302.219 268.053 303.627 301.336L308.736 446.256C309.203 463.503 310.246 480.815 310.326 498.058C302.351 499.106 293.976 499.115 285.937 499.521L227.758 501.9L124.751 506.217C106.445 506.991 88.0764 508.16 69.77 508.653C67.5597 508.712 64.1721 508.995 62.243 507.921C61.5039 507.509 61.3968 506.45 61.1288 505.696C59.7023 486.342 57.2925 467.007 55.6803 447.653Q48.0541 359.381 41.7887 271.002C40.417 252.868 38.5709 234.764 37.3305 216.617C46.373 216.469 55.3972 215.411 64.4252 214.89L147.25 209.335C195.014 206.223 242.858 204.628 290.632 201.707Z"/>
	<path fill="#080A0C" d="M279.658 208.7C282.385 208.313 285.141 208.4 287.89 208.397C289.599 229.364 289.721 250.593 290.592 271.618L296.445 406.945C296.83 414.516 300.027 460.587 298.717 463.314C293.603 465.806 197.438 471.353 182.279 472.395L117.943 477.163C101.892 478.34 85.8367 480.38 69.7609 481.108C66.8075 481.242 64.2767 481.256 61.4039 480.37C60.1061 473.525 59.8656 466.044 59.2408 459.078L55.3497 414.656Q49.0732 347.215 44.1598 279.66C42.9077 263.946 40.9561 248.284 39.8238 232.557C39.6097 229.582 38.5798 223.971 39.8381 221.374C42.7631 220.028 46.207 219.589 49.3878 219.236C61.1801 217.925 73.3077 217.913 85.1712 217.45L152.26 214.993Q196.796 213.418 241.298 211.053C254.073 210.346 266.917 209.881 279.658 208.7Z"/>
	<path fill="#FEFEFE" d="M275.8 216.711C277.441 216.485 279.237 216.58 280.9 216.535C281.637 229.695 281.847 242.905 282.22 256.08C259.022 247.077 235.219 240.168 211.608 232.37C203.514 230.17 186.964 225.271 180.027 221.419C190.648 221.443 201.32 220.732 211.932 220.251Q243.881 218.754 275.8 216.711Z"/>
	<path fill="#FEFEFE" d="M63.3881 416.067C78.0716 422.232 92.3656 430.657 106.396 438.222C124.573 448.023 143.182 457.673 160.815 468.402L154.219 468.574C125.67 469.969 97.195 472.695 68.6457 474.11C66.3844 454.824 64.9197 435.423 63.3881 416.067Z"/>
	<path fill="#FEFEFE" d="M66.8594 230.482C80.6938 231.195 104.766 239.123 118.666 243.225L173.053 259.091L239.172 278.781C254.139 283.29 269.383 287.458 283.859 293.413C284.745 307.403 285.431 321.724 285.456 335.74C267.825 328.773 250.583 320.353 233.379 312.385C207.794 300.534 182.306 288.768 157.025 276.26C126.999 261.405 96.0765 246.827 66.8594 230.482Z"/>
	<path fill="#FEFEFE" d="M54.3665 313.493C68.1252 322.796 81.1625 333.483 94.4531 343.463C108.562 354.057 123.192 364.195 137.728 374.206Q156.78 387.171 176.011 399.87C187.367 407.267 264.476 455.205 267.934 460.819L265.508 461.32C252.243 462.045 239.019 463.318 225.758 464.084C217.635 459.902 209.767 455.004 201.749 450.595Q166.376 431.27 131.267 411.472C107.501 398.245 82.5948 386.159 59.6494 371.627C57.9114 360.164 57.27 348.378 56.3125 336.824C55.6713 329.085 54.5837 321.243 54.3665 313.493Z"/>
	<path fill="#FEFEFE" d="M50.1178 262.62C60.3457 267.347 70.1865 272.921 80.3419 277.81C95.9651 285.33 112.033 292.139 127.87 299.211Q175.963 320.222 223.562 342.33C244.885 351.999 266.356 361.432 287.223 372.075C289.252 393.362 289.348 414.775 290.564 436.112C284.363 432.742 278.437 428.147 272.604 424.172Q255.853 412.627 238.855 401.448Q142.046 338.563 50.6302 268.068L50.1178 262.62Z"/>
	<path fill="#080A0C" d="M962.241 503.706C966.193 503.458 974.536 502.203 977.768 504.671C979.505 505.998 979.539 507.838 979.711 509.885C980.597 520.469 980.024 531.573 980.083 542.215L980.227 604.989L979.277 806.881C979.276 808.233 979.46 811.148 978.507 812.109C977.78 812.841 977.062 813.199 976.049 813.312C970.128 813.973 963.581 813.599 957.592 813.793L906.974 815.141L716.61 820.049C713.011 820.233 704.335 821.491 701.175 819.535C700.609 819.185 700.719 819.12 700.514 818.402C698.875 812.682 699.607 804.687 699.448 798.725Q698.754 773.435 698.599 748.137L696.982 554.519C696.962 550.041 695.845 523.908 697.269 522.029C698.233 520.757 699.904 520.772 701.366 520.601C710.901 519.492 720.742 519.308 730.34 518.689L783.69 515.023Q872.91 508.475 962.241 503.706Z"/>
	<path fill="#FEFEFE" d="M964.357 509.722C967.324 509.401 970.47 509.558 973.463 509.539L973.221 721.253L972.552 772.514C972.478 783.949 972.827 795.422 972.393 806.849C963.578 807.544 954.601 807.299 945.753 807.592L875.01 809.42L712.375 813.556L706.852 813.719Q705.172 757.98 704.441 702.221L703.547 579.38C703.362 561.772 703.608 544.145 703.042 526.545Q756.863 523.7 810.597 519.532Q887.438 514.017 964.357 509.722Z"/>
	<path fill="#080A0C" d="M956.944 515.224C959.33 515.109 962.217 514.72 964.553 515.136C965.928 515.38 966.479 515.778 967.322 516.843C968.472 524.236 967.865 532.497 967.918 540.003Q968.106 563.571 967.967 587.139Q968.056 660.295 967.204 733.446C967.061 740.734 965.968 791.742 964.512 794.122C962.959 794.941 961.44 795.143 959.696 795.262C953.732 795.671 947.583 795.434 941.591 795.592L900.168 796.876L783.197 801.629C762.168 802.419 741.148 802.607 720.118 803.63C719.172 802.328 718.774 801.404 718.655 799.773C718.031 791.26 717.957 782.634 717.579 774.101Q716.153 743.192 715.207 712.264L711.584 613.488C711.006 595.247 709.999 577.008 709.213 558.773C708.817 549.592 707.778 539.839 708.576 530.675C709.211 530.107 709.639 529.501 710.494 529.314C714.526 528.433 719.418 528.534 723.608 528.123C741.731 526.348 759.975 525.631 778.142 524.476Q867.504 519.097 956.944 515.224Z"/>
	<path fill="#FEFEFE" d="M923.994 581.318C926.928 583.046 944.724 613.496 947.83 619.016L944.442 622.788C939.222 619.589 935.267 614.174 930.684 610.105C928.912 616.313 928.215 622.755 926.263 628.949L923.985 626.186C920.586 621.839 917.354 617.481 913.338 613.671C909.563 617.723 906.955 622.689 903.183 626.775C901.541 625.707 899.79 624.892 898.03 624.044C901.822 616.51 906.568 609.423 910.981 602.238C915.269 595.256 919.363 588.078 923.994 581.318Z"/>
	<path fill="#FEFEFE" d="M838.282 553.827C840.801 556.718 852.472 616.101 853.926 623.332C849.639 619.202 845.761 614.618 841.795 610.182C840.178 613.759 838.216 617.203 836.365 620.664L832.283 616.824C830.659 615.422 828.808 614.223 827.065 612.972L819.209 622.957C815.744 618.33 812.137 613.759 809.064 608.859Q817.044 594.286 824.672 579.525C829.057 570.904 833.164 562.039 838.282 553.827Z"/>
	<path fill="#FEFEFE" d="M847.122 558.285C849.624 560.137 888.977 632.581 893.237 640.676C889.255 647.049 886.055 654.137 882.652 660.846L878.172 670.708C876.654 665.875 874.67 661.163 873.012 656.37C869.409 645.953 865.992 635.355 862.795 624.807C858.486 610.589 855.492 596.198 852.237 581.728C850.495 573.985 848.227 566.136 847.122 558.285Z"/>
	<path fill="#FEFEFE" d="M945.992 522.29C950.961 521.875 955.979 521.922 960.964 521.85C962.26 556.374 961.874 591.174 961.069 625.708C956.943 620.607 953.517 614.807 949.979 609.285L931.963 580.738C930.185 577.898 927.063 571.324 924.832 569.207C924.575 568.963 924.172 568.951 923.841 568.823C920.228 572.852 917.537 578.171 914.695 582.794C906.777 595.675 899.6 609.223 891.023 621.664C883.348 610.517 847.321 540.906 841.477 538.358C839.849 537.648 836.467 544.27 835.741 545.597C832.314 551.862 806.527 602.656 802.346 604.251L801.653 603.256Q790.45 584.983 779.483 566.568C774.941 558.988 769.921 551.407 766.251 543.368C758.885 551.095 751.983 565.038 746.053 574.372C737.212 588.291 727.724 601.862 718.546 615.566C718.52 605.163 717.677 594.686 717.201 584.289L715.352 535.034C722.683 533.883 730.473 533.79 737.89 533.313L782.686 530.612C812.523 528.777 842.392 526.722 872.248 525.285L945.992 522.29Z"/>
	<path fill="#FEFEFE" d="M951.557 679.282C954.94 679.067 958.347 679.036 961.736 678.939Q961.973 733.699 959.998 788.423C925.017 788.579 889.959 790.751 855.011 792.209L730.581 796.713L724.567 797.041Q722.719 760.483 721.738 723.892C721.344 712.277 721.232 700.629 720.501 689.029C725.388 688.473 730.333 688.584 735.245 688.419L759.799 687.484L822.032 685.069Q886.82 682.748 951.557 679.282Z"/>
	<path fill="#080A0C" d="M922.352 722.612C924.861 722.402 927.291 721.951 929.475 723.508L929.572 724.353C928.767 724.812 928.592 724.895 927.622 724.953C925.729 725.133 923.716 725.434 921.818 725.278C920.632 725.18 920.252 725.241 919.458 724.343C920.382 723.321 921.095 723.079 922.352 722.612Z"/>
	<path fill="#080A0C" d="M869.508 733.671L873.236 733.988L873.296 735.092L874.575 734.494L873.477 734.092L874.15 734.926C871.042 735.917 867.85 736.103 864.62 736.393C861.674 736.646 858.777 736.763 855.821 736.773C860.27 735.003 864.784 734.296 869.508 733.671Z"/>
	<path fill="#080A0C" d="M738.088 782.7C740.769 782.497 743.392 782.082 745.952 783.126L745.967 783.758C744.202 784.838 742.506 784.731 740.499 784.779C737.437 784.966 734.809 785.01 731.829 784.145L731.838 783.769C733.941 782.997 735.879 782.865 738.088 782.7Z"/>
	<path fill="#080A0C" d="M846.132 715.221C849.298 715.146 852.342 715.518 855.477 715.905C851.691 717.285 847.855 717.47 843.875 717.678C840.919 717.832 837.958 717.417 835.018 717.128C838.672 715.79 842.288 715.501 846.132 715.221Z"/>
	<path fill="#080A0C" d="M739.418 740.228C740.921 739.798 742.165 739.826 743.626 740.406L743.766 740.833C741.315 743.202 736.572 742.636 733.376 742.664C732.247 742.681 731.233 742.447 730.131 742.226L729.715 741.3L728.818 741.729L729.996 742.007L729.234 742.12L729.159 741.282C731.207 739.851 736.947 740.272 739.418 740.228Z"/>
	<path fill="#080A0C" d="M945.35 699.249C948.725 699.04 954.992 697.852 957.596 700.037L957.463 700.904L956.053 701.477C952.716 701.669 947.094 702.559 944.039 701.127L944.095 700.267L945.35 699.249Z"/>
	<path fill="#080A0C" d="M777.352 739.702C782.587 739.467 789.201 738.575 794.255 739.691L794.599 740.413L793.51 740.971C788.952 741.539 781.244 742.812 776.896 741.432L776.645 740.544L777.352 739.702Z"/>
	<path fill="#080A0C" d="M744.601 700.194C746.764 700.01 748.359 699.493 750.123 700.911L750.508 700.653L750.242 701.065C746.969 702.8 744.388 702.871 740.762 702.969C739.579 703 738.35 703.073 737.17 702.966C736.097 702.869 734.077 702.848 733.348 702.045C734.703 700.973 737.112 700.502 738.814 700.484C740.754 700.463 742.667 700.326 744.601 700.194Z"/>
	<path fill="#080A0C" d="M800.349 777.209C804.615 776.942 808.673 776.794 812.907 777.533L812.37 778.123C809.662 779.23 806.937 779.087 804.07 779.079C798.447 779.498 793.072 779.667 787.472 778.892C791.751 777.89 795.972 777.523 800.349 777.209Z"/>
	<path fill="#080A0C" d="M841.367 752.218C841.998 752.172 842.629 752.12 843.263 752.131C844.254 752.149 846.112 751.983 846.792 752.691C843.604 754.945 834.332 754.721 830.377 755.068C828.618 755.235 826.367 755.84 824.832 754.989L824.616 754.014C828.403 751.766 836.923 752.422 841.367 752.218Z"/>
	<path fill="#080A0C" d="M796.724 706.231C798.319 706.251 798.653 706.179 800.044 707.071L799.613 707.594C792.969 709.436 783.457 708.857 776.514 708.786C776.031 708.8 775.198 708.836 774.74 708.788C773.762 708.686 773.407 708.633 772.829 707.872C779.619 706.032 789.572 706.439 796.724 706.231Z"/>
	<path fill="#080A0C" d="M941.522 764.287C945.346 763.988 948.763 763.835 952.549 764.519C952.4 764.612 951.999 765.971 951.933 766.168C949.231 766.91 945.889 766.521 943.051 766.707L939.998 766.979C937.262 767.234 935.266 767.187 932.574 766.641L932.355 765.617L931.562 766.121L932.414 766.532L932.8 765.423C935.65 764.343 938.516 764.379 941.522 764.287Z"/>
	<path fill="#080A0C" d="M758.835 762.727Q760.287 762.659 761.741 762.618C762.63 762.584 763.527 762.526 764.417 762.55C765.848 762.588 767.304 762.94 768.3 763.982C765.161 765.989 756.36 765.199 752.478 765.264C750.039 765.561 744.48 765.791 742.462 764.527L742.597 764.182C745.354 761.937 754.998 762.819 758.835 762.727Z"/>
	<path fill="#080A0C" d="M884.115 766.218C886.677 766.041 890.947 765.478 893.004 767.088L892.306 766.476L891.456 767.755C885.317 768.995 878.65 768.387 872.383 768.951C869.082 769.127 865.334 769.548 862.276 768.035C862.879 767.787 863.395 767.613 864.048 767.528C870.698 766.67 877.421 766.51 884.115 766.218Z"/>
	<path fill="#080A0C" d="M911.661 741.71C914.192 741.569 919.049 740.779 921.105 742.349L920.892 743.072C917.124 745.298 909.353 744.602 904.963 744.875C900.912 745.002 896.941 745.05 892.895 744.773C899.005 742.194 905.154 742.091 911.661 741.71Z"/>
	<path fill="#080A0C" d="M911.635 688.285C916.23 687.99 921.085 687.486 925.631 688.444L925.791 688.931C921.654 691.343 915.084 690.448 910.354 690.928C907.324 691.07 899.99 691.97 897.67 690.028C901.462 688.025 907.376 688.415 911.635 688.285Z"/>
</svg>
