<?xml version="1.0" encoding="utf-8" ?>
<svg xmlns="http://www.w3.org/2000/svg" xmlns:xlink="http://www.w3.org/1999/xlink" width="1024" height="1024">
	<path fill="#FEFEFE" d="M0 0L1024 0L1024 1024L0 1024L0 0Z"/>
	<path fill="#010101" d="M970.766 512.227C971.765 512.082 972.196 512.127 973.158 512.314C974.055 513.201 974.322 513.901 974.484 515.12C974.861 517.963 974.665 521.001 974.9 523.89L977.38 552.613C982.588 607.304 985.752 662.148 990.577 716.878C991.214 724.112 991.008 732.144 992.388 739.206C992.94 739.435 993.78 739.714 994.283 740.077C995.035 740.619 995.238 741.119 995.459 742.002C995.696 742.947 995.464 742.977 995.035 743.769C988.006 747.543 935.314 750.34 923.262 751.291C908.275 752.475 893.323 754.073 878.333 755.234C863.823 756.357 849.25 757.03 834.771 758.475C811.566 760.792 788.701 765.12 765.444 767.015C763.082 766.926 760.43 767.156 758.63 765.443C755.947 758.21 754.43 734.948 753.435 725.817Q747.696 674.444 744.335 622.862Q740.975 571.279 740 519.596C761.571 517.535 783.333 517.528 804.98 517.012L922.883 514.032C938.836 513.484 954.847 513.455 970.766 512.227Z"/>
	<path fill="#FEFEFE" d="M964.304 517.201C966.68 516.877 969.297 516.927 971.703 516.805C973.254 527.26 973.601 538.165 974.464 548.718Q977.554 584.046 979.354 619.464Q982.992 680.193 987.465 740.868C960.118 745.381 931.872 744.962 904.308 747.738C879.402 750.247 854.367 752.337 829.513 755.238C808.124 757.735 787.218 761.149 765.663 762.258L764.522 762.12C762.68 758.69 762.39 750.113 761.791 745.87C758.58 723.124 756.723 700.52 754.575 677.67Q749.862 629.233 746.441 580.687L742.915 522.148C771.076 520.617 799.556 521.065 827.763 520.735C854.168 520.427 880.514 519.337 906.903 518.775C926.163 518.365 945.064 518.827 964.304 517.201Z"/>
	<path fill="#010101" d="M947.504 528.218C950.789 528.014 954.096 528.098 957.387 528.112C958.945 537.562 959.438 547.523 960.26 557.064Q963.076 589.225 964.595 621.474L966.534 657.719C966.941 665.359 967.612 673.082 967.424 680.729C954.154 684.618 937.89 686.003 924.12 688.32Q877.402 696.529 830.294 702.073C813.344 704.13 796.325 705.488 779.381 707.639C777.201 708.012 775.04 708.59 772.848 708.094C768.659 703.515 762.052 605.917 761.295 592.782C760.295 575.436 759.478 557.912 759.247 540.539C771.889 540.957 784.684 540.446 797.323 539.952Q829.135 538.703 860.84 535.818C889.753 533.123 918.486 529.675 947.504 528.218Z"/>
	<path fill="#FEFEFE" d="M940.273 532.706C944.814 532.299 949.427 532.373 953.985 532.303C954.832 539.27 955.115 546.394 955.631 553.4L958.577 595.561C940.477 596.06 922.348 594.729 904.249 595.792C878.783 597.288 854.019 603.058 829.05 607.907C813.595 610.908 797.543 613.183 782.437 617.636C780.447 618.223 778.238 618.793 777.222 620.697L777.922 622.329C779.271 622.851 780.455 622.527 781.869 622.277C788.305 621.137 794.674 619.26 801.092 617.945C812.684 615.571 824.347 613.549 835.945 611.197C854.458 607.441 873.138 603.405 891.867 600.917C904.498 599.239 917.242 599.558 929.948 599.706C939.605 599.819 949.297 599.777 958.943 600.238C960.693 611.663 960.739 628.544 961.363 640.584C961.915 651.255 963.627 666.759 962.846 677.016C948.553 680.019 933.992 682.036 919.593 684.535Q872.248 693.059 824.537 699.214C808.306 701.21 791.958 702.302 775.746 704.429C775.445 686.528 772.021 668.472 770.485 650.619C767.409 614.865 765.225 579.031 761.827 543.293C780.095 546.11 799.659 543.765 818.047 542.616C858.879 540.065 899.471 535.403 940.273 532.706Z"/>
	<path fill="#010101" d="M886.751 635.505C887.84 635.622 888.602 635.471 889.413 636.252C887.359 639.299 883.993 639.998 880.642 640.966C879.604 641.041 878.929 640.922 877.92 640.72L877.713 639.912C879.561 637.268 883.794 636.33 886.751 635.505Z"/>
	<path fill="#010101" d="M791.55 638.915C792.461 638.807 792.878 638.927 793.713 639.296L793.669 640.087C790.277 642.93 785.765 644.344 781.641 645.768L780.092 645.896L779.557 645.053C781.967 642.179 788.011 640.392 791.55 638.915Z"/>
	<path fill="#010101" d="M796.216 640.928C797.373 641.194 797.663 641.087 798.519 641.968C798.41 642.423 798.426 642.486 798.137 642.946C796.631 645.342 792.662 646.746 790.128 647.52C788.876 647.1 788.215 647.188 787.546 645.981C788.847 643.388 793.642 642.008 796.216 640.928Z"/>
	<path fill="#010101" d="M946.5 651.235L947.949 651.675L948.465 652.774C948.337 653.167 948.314 653.611 948.083 653.953C947.931 654.178 938.077 662.623 936.526 664.155L935.927 664.405L935.173 663.932L935.194 663.055C937.594 658.314 942.144 654.177 946.5 651.235Z"/>
	<path fill="#010101" d="M880.71 641.562C880.923 641.535 881.135 641.497 881.349 641.482C882.863 641.374 884.162 641.649 885.342 642.65L885.076 643.618C882.602 645.491 878.674 646.272 875.754 647.495C875.315 647.65 874.711 647.891 874.252 647.917C873.118 647.982 872.577 647.79 871.784 647.052C871.605 646.396 871.775 645.999 871.923 645.35C874.533 642.606 877.155 642.333 880.71 641.562Z"/>
	<path fill="#010101" d="M800.226 656.497C801.211 656.309 801.942 656.453 802.918 656.639L803.244 657.416C800.849 661.38 796.731 663.138 792.644 664.869C791.49 665.135 791.548 665.349 790.44 664.755C790.181 664.083 789.849 663.726 790.118 663.003C791.303 659.813 797.253 657.736 800.226 656.497Z"/>
	<path fill="#010101" d="M840.787 621.136C842.219 621.127 842.488 621.053 843.674 621.813L843.481 622.71C840.627 625.663 834.826 627.07 830.876 627.846C829.516 627.423 828.325 626.997 827.479 625.793L827.674 624.804C830.604 622.336 836.979 621.846 840.787 621.136Z"/>
	<path fill="#010101" d="M943.446 622.898C944.928 622.94 944.907 623.139 946.009 624.168C942.93 628.217 926.008 632.602 920.597 634.471L919.836 634.299C918.968 633.413 918.681 633.009 918.479 631.779C920.154 629.318 933.162 627.135 936.717 625.995C939.048 625.248 941.277 624.021 943.446 622.898Z"/>
	<path fill="#010101" d="M937.637 633.759C938.85 633.904 939.651 633.99 940.737 634.601L940.629 635.37C935.845 639.591 926.66 639.508 920.613 641.115C919.815 641.398 919.249 641.389 918.411 641.407L917.768 640.654L918.114 639.323C922.311 634.642 931.768 634.291 937.637 633.759Z"/>
	<path fill="#010101" d="M820.817 663.519C822.085 663.457 823.192 663.242 824.274 664.039L824.303 665.207C822.121 667.181 819.404 668.724 817.096 670.597C811.072 675.486 805.489 680.641 800.077 686.193C799.371 686.769 799.817 686.535 798.652 686.703C797.685 685.735 797.779 685.692 797.678 684.309C799.753 679.08 815.267 666.351 820.817 663.519Z"/>
	<path fill="#010101" d="M861.379 673.822C866.778 674.304 886.399 679.631 890.869 682.67C891.637 684.003 891.419 684.2 891.151 685.743C885.611 686.467 868.728 680.678 863.693 677.517C862.055 676.489 861.834 675.66 861.379 673.822Z"/>
	<path fill="#010101" d="M885.008 660.712C886.108 660.951 885.95 660.737 886.722 661.723L886.566 662.53C881.734 665.11 874.12 665.306 868.725 665.687C876.911 669.411 885.83 670.294 894.477 672.345C895.887 672.679 897.011 672.864 897.813 674.109C897.088 675.294 896.456 675.435 895.234 676.05C887.484 675.213 868.323 672.559 863.245 666.388L863.556 664.72C868.702 660.677 878.712 661.152 885.008 660.712Z"/>
	<path fill="#010101" d="M849.97 626.69C851.235 626.491 852.746 626.357 854.032 626.431C855.312 626.505 856.353 627.092 857.22 628.005C854.543 633.253 837.471 630.173 833.718 634.67L834.116 634.767C837.591 635.641 842.016 634.146 845.241 636.067L845.432 637.034C843.61 639.568 841.399 639.871 838.572 640.641C833.225 639.692 827.912 637.717 823.944 633.87C822.796 632.758 822.031 631.84 821.987 630.223L822.847 629.789C825.331 629.64 827.33 630.841 829.528 631.86C836.568 629.629 842.545 627.55 849.97 626.69Z"/>
	<path fill="#010101" d="M835.695 667.762L838.019 667.943C839.158 668.804 839.17 668.773 839.49 670.159C838.808 672.957 837.214 678.053 835.219 680.08C833.779 681.542 831.779 682.362 829.909 683.105C820.351 686.903 813.752 691.8 805.814 698.242C804.946 698.596 804.691 698.523 803.789 698.406C802.843 697.573 802.853 697.531 802.611 696.288C804.381 690.027 829.946 674.102 835.695 667.762Z"/>
	<path fill="#010101" d="M902.935 601.198C903.814 601.24 904.694 601.29 905.564 601.432C907.966 601.823 909.062 603.716 910.442 605.546C913.507 605.619 918.564 605.258 920.883 607.586C921.843 608.55 921.887 609.108 921.904 610.354C919.266 615.397 904.628 617.372 899.076 619.955L898.221 620.361L895.858 620.7C893.843 620.083 892.486 618.385 891.02 616.939C888.03 616.938 883.673 617.922 881.163 615.76C880.121 614.861 880.196 614.464 880.081 613.176C880.529 612.008 880.965 611.166 881.82 610.236C886.885 604.721 895.671 601.634 902.935 601.198Z"/>
	<path fill="#FEFEFE" d="M902.395 604.117C903.684 604.323 904.455 604.253 905.49 605.106C903.384 607.625 898.693 607.487 896.42 610.038C899.037 612.959 908.476 609.847 912.138 609.44C914.131 609.219 916.251 609.403 918.251 609.513C914.255 610.302 910.333 611.49 906.412 612.583C902.719 613.371 899.835 614.981 896.621 616.871C895.645 615.534 894.563 614.304 893.476 613.057C890.468 612.844 887.46 613.041 884.452 613.172C888.944 608.772 896.179 605.089 902.395 604.117Z"/>
	<path fill="#010101" d="M616.439 525.238Q627.815 524.922 639.196 525.008C639.807 526.293 640.324 527.559 640.579 528.964C642.419 539.116 642.418 554.791 642.986 565.457L646.994 647.282L653.487 757.553Q654.437 757.937 655.365 758.372C656.492 758.915 656.985 759.366 657.364 760.573C657.655 761.503 657.338 761.649 656.931 762.462C654.359 764.11 651.368 764.438 648.391 764.777C628.244 767.075 607.773 767.597 587.543 769.024Q515.757 773.464 444.121 779.895C440.787 780.187 437.446 780.511 434.105 780.713C427.332 781.121 430.692 780.538 426.728 778.334C426.013 777.936 425.502 778.294 424.798 778.495C422.806 779.065 422.081 779.219 420.229 778.195C419.287 776.352 419.015 774.269 418.756 772.234C416.663 755.777 415.752 738.915 414.614 722.354L410.419 662.304Q407.895 624.216 406.01 586.091C405.239 570.971 404.081 555.7 404.171 540.559C404.187 538.013 403.875 531.841 405.416 529.832C407.353 528.748 409.327 528.867 411.496 528.798C432.652 528.123 453.864 528.547 475.033 528.259Q545.753 527.538 616.439 525.238Z"/>
	<path fill="#FEFEFE" d="M630.17 530.781L637.083 530.492C638.148 537.79 638.069 545.452 638.374 552.828L639.939 589.245C642.443 646.031 642.437 703.197 648.133 759.784C632.396 761.566 616.886 761.063 601.118 761.678C584.409 762.329 567.713 763.92 551.046 765.241C525.849 767.24 500.745 769.895 475.578 772.187C459.193 773.679 442.56 775.471 426.096 775.322C423.387 767.131 423.467 754.903 422.763 746.148Q420.322 717.145 418.513 688.096C415.147 636.575 410.468 585.044 409.023 533.415C436.761 531.914 464.91 532.99 492.689 532.841Q561.441 532.586 630.17 530.781Z"/>
	<path fill="#010101" d="M609.145 540.707C613.141 540.466 620.337 539.294 623.736 541.474C626.069 546.627 631.281 693.591 629.704 697.979C623.389 700.958 611.218 701.064 603.943 702.3C550.997 711.292 497.871 720.066 444.203 723.557Q439.961 723.845 435.716 724.074C433.642 703.962 418.955 557.725 423.231 551.849C428.566 550.491 435.036 550.719 440.572 550.406L474.028 548.583L609.145 540.707Z"/>
	<path fill="#FEFEFE" d="M523.708 630.006C524.903 630.232 526.238 630.349 527.226 631.107C528.506 632.089 529.065 635.412 529.332 636.978C530.703 644.991 531.157 653.163 532.62 661.172C533.514 666.064 535.153 671.079 536.654 675.821C539.479 684.741 545.189 693.457 546.733 702.658C546.203 703.995 544.84 704.528 543.659 705.218L537.96 706.923C531.768 690.923 532.027 674.239 528.669 657.683C527.096 649.928 522.759 640.889 522.332 633.23C522.239 631.558 522.586 631.194 523.708 630.006Z"/>
	<path fill="#FEFEFE" d="M518.926 697.435C522.332 697.522 526.065 698.609 529.439 699.232C530.916 702.2 532.298 705.222 533.719 708.217C523.32 709.683 444.995 719.464 441.625 718.561C441.309 718.476 441.081 718.198 440.808 718.017L440.749 715.97C442.018 711.998 444.021 708.918 447.054 706.057C453.065 711.248 456.078 714.75 464.391 715.226C469.923 712.625 474.065 709.085 478.858 705.412C490.094 696.802 489.281 711.493 498.841 712.477C509.331 713.556 511.973 702.937 518.484 697.776C518.63 697.66 518.779 697.549 518.926 697.435Z"/>
	<path fill="#FEFEFE" d="M615.118 545.707C616.504 545.528 617.734 545.234 619.062 545.812C620.487 548.317 620.467 574.137 620.644 579.557L623.382 655.367C623.87 667.867 625.307 680.888 624.747 693.339C616.77 695.184 607.985 695.333 599.834 696.616C589.649 698.22 559.353 705.554 551.69 704.863L551.703 703.862C558.723 692.943 567.201 702.345 574.626 699.45C578.605 697.898 580.357 693.485 586.275 691.122C587.727 692.923 589.707 695.996 591.762 696.988C592.625 697.405 592.253 697.339 593.197 696.979L593.618 695.525C593.275 693.455 592.087 691.906 590.97 690.176C596.318 690.29 602.728 692.788 607.86 691.195C611.425 690.089 614.014 687.801 617.785 687.063C617.993 687.023 618.202 686.989 618.41 686.951C619.757 688.091 621.721 690.264 623.469 690.527C623.746 690.143 623.876 690.025 623.996 689.501C624.301 688.159 624.039 685.722 623.321 684.515C622.756 683.566 621.785 683.074 620.736 682.846C615.18 681.635 609.57 684.971 605.018 687.659C601.687 686.649 598.427 685.646 594.929 685.417C585.239 684.784 578.887 689.545 572.032 695.574C570.814 694.796 569.639 694.138 568.228 693.769C561.457 691.997 556.598 694.221 550.933 697.614C548.305 688.674 543.841 680.194 540.873 671.303C537.532 661.295 533.268 649.965 536.324 639.339C537.868 633.969 540.425 628.891 541.993 623.489C545.302 612.096 548.472 600.844 552.464 589.653C554.141 584.95 561.263 566.972 565.583 565.35C566.339 565.066 566.524 565.428 567.15 565.795C567.213 567.258 565.797 568.707 565.006 569.873Q562.304 573.904 560.003 578.176Q557.702 582.448 555.824 586.923C550.513 599.24 548.449 612.861 544.453 625.664C543.212 629.638 539.414 636.423 539.655 640.272C539.736 641.572 540.001 642.089 540.96 642.922C541.282 642.873 541.617 642.876 541.927 642.777C546.113 641.441 558.183 618.325 560.152 613.856C565.766 601.861 574.375 590.826 577.036 577.565C577.915 573.184 578.06 568.085 575.372 564.269C572.719 560.504 567.815 558.911 563.459 558.143C559.057 557.366 554.786 557.957 551.093 560.599C537.929 570.015 539.552 601.178 537.844 615.878C537.094 622.336 535.199 628.315 533.991 634.651C533.156 632.269 532.391 629.905 530.533 628.108C528.728 626.361 526.112 625.128 523.564 625.346C521.945 625.485 520.447 626.239 519.442 627.528C518.02 629.349 517.763 631.873 517.963 634.105C518.577 640.97 521.242 648.262 522.472 655.158C524.825 668.36 526.149 681.802 528.301 695.057C510.031 689.189 513.121 703.111 499.964 707.945C496.495 704.47 493.848 700.316 489.209 698.21C479.847 693.96 471.11 707.086 461.89 710.42C461.687 710.493 461.481 710.562 461.276 710.633Q457.479 707.788 453.644 704.996C451.049 703.129 447.945 701.055 444.579 701.763C441.948 702.316 440.976 704.721 439.711 706.828C436.335 691.847 435.946 674.618 434.674 659.31L426.912 555.967C457.561 554.539 488.239 553.742 518.894 552.167Q567.04 549.445 615.118 545.707Z"/>
	<path fill="#010101" d="M592.337 604.579C595.095 604.212 597.928 603.961 600.267 605.764C602.864 607.767 604.06 610.845 604.523 613.997C607.644 635.234 596.532 636.912 581.987 645.838C576.454 649.234 571.709 653.498 567.887 658.74C567.034 660.11 566.213 661.513 565.294 662.84C564.383 664.157 563.445 665.082 561.834 665.389C560.669 664.787 560.753 664.583 560.148 663.485C560.053 660.698 561.329 658.201 561.871 655.503C564.051 644.635 565.632 634.439 571.004 624.517C575.945 615.391 582.096 607.668 592.337 604.579Z"/>
	<path fill="#FEFEFE" d="M596.544 617.049L599.23 617.171L599.268 617.6C586.725 622.548 572.38 644.126 566.993 655.957L566.219 656.701L565.6 656.093C565.812 654.076 566.359 652.297 567.107 650.42C572.146 637.785 583.701 622.53 596.544 617.049Z"/>
	<path fill="#010101" d="M467.273 638.602Q469.346 638.406 471.426 638.488C477.707 638.79 483.556 643.994 487.502 648.541C491.48 653.125 507.497 676.183 507.125 681.127C506.976 681.244 506.839 681.378 506.677 681.476C503.834 683.198 497.394 681.019 494.379 680.28C484.647 678.375 474.967 676.379 465.752 672.605C460.364 670.397 454.414 667.412 452.172 661.652C450.602 657.619 451.136 653.088 452.951 649.224C455.756 643.253 461.35 640.577 467.273 638.602Z"/>
	<path fill="#010101" d="M479.891 575.578C484.985 575.861 488.625 577.738 492.054 581.559C502.277 592.952 505.739 617.285 508.546 632.152C509.426 636.811 511.292 641.464 511.068 646.259C510.322 647.455 510.336 647.561 509.029 648.041C505.696 646.984 503.073 641.624 501.187 638.75C499.642 636.381 498.114 633.687 496.005 631.784C492.125 628.283 486.819 626.036 482.413 623.215C473.999 617.827 463.416 606.715 460.868 596.835C459.877 592.99 460.28 588.928 462.346 585.501C465.771 579.818 473.732 577.021 479.891 575.578Z"/>
	<path fill="#FEFEFE" d="M468.664 584.272C475.412 586.522 497.573 618.228 501.329 625.164C502.709 627.714 506.55 633.88 505.697 636.781L505.043 636.463C493.447 620.132 484.667 598.584 467.089 587.586L466.47 587.202C466.57 585.906 467.763 585.179 468.664 584.272Z"/>
	<path fill="#010101" d="M955.888 229.225C957.177 229.156 958.843 228.898 960.082 229.275C963.165 230.213 963.029 242.099 963.255 245.116Q965.144 268.08 966.554 291.079L971.749 389.649Q973.313 413.986 975.253 438.297C975.592 443.154 975.378 459.734 977.336 463.273C978.155 464.754 978.76 465.511 978.47 467.24C977.128 468.273 975.437 468.403 973.798 468.548C948.75 470.757 923.446 471.306 898.345 473.219L824.59 478.668Q784.78 482.069 744.875 484.075C742.33 484.158 738.637 484.759 736.685 482.751C735.592 481.626 735.326 480.029 735.199 478.533C734.003 464.427 734.025 450.022 733.235 435.865L727.815 346.732Q725.162 306.108 723.561 265.429C723.226 255.009 722.38 244.566 722.816 234.14Q779.426 232.863 836.048 232.392Q895.985 231.453 955.888 229.225Z"/>
	<path fill="#FEFEFE" d="M939.991 233.278C946.396 232.91 952.869 232.722 959.28 232.964C960.861 240.111 960.883 247.856 961.448 255.154Q963.417 278.612 964.468 302.13C967.087 356.147 967.886 410.201 972.006 464.151L756.519 479.398C751.901 479.498 747.275 479.875 742.664 480.157C740.128 470.75 740.242 460.3 739.724 450.609Q738.832 433.808 737.658 417.025L725.392 236.955Q832.715 236.462 939.991 233.278Z"/>
	<path fill="#010101" d="M940.597 243.695C942.482 243.434 944.038 243.185 945.688 244.296C946.465 245.767 946.203 246.887 945.953 248.459C944.655 256.612 945.607 265.702 945.871 273.948Q946.838 300.52 948.126 327.079C949.234 354.846 948.976 382.622 949.138 410.401C902.646 412.026 856.125 416.685 809.725 420.062C790.452 421.464 770.924 423.606 751.604 423.608C750.314 421.486 750.296 410.914 750.054 407.92Q746.35 363.523 744.427 319.013C743.315 297.258 741.991 275.278 742.253 253.492C749.78 252.877 757.474 253.139 765.029 253.025Q782.133 252.63 799.232 252.049Q849.172 250.537 898.985 246.664C912.837 245.695 926.791 245.14 940.597 243.695Z"/>
	<path fill="#FEFEFE" d="M899.978 359.707C906.618 363.037 914.582 373.91 918.749 380.033C912.336 386.568 912.564 379.298 906.984 380.079C905.592 381.005 905.131 382.359 904.455 383.819C903.353 384.528 902.031 385.352 900.691 385.485C897.7 385.783 895.762 383.679 893.703 381.884C892.738 383.079 892.11 384.435 890.587 384.793C889.257 383.917 886.858 382.802 886.254 381.407C888.029 377.454 890.969 373.854 893.362 370.242C895.65 366.791 897.693 363.174 899.978 359.707Z"/>
	<path fill="#FEFEFE" d="M853.385 330.947C855.76 334.517 861.536 358.688 864.694 366.306C863.067 367.69 860.58 370.047 858.319 369.987C855.5 369.912 852.641 366.688 850.625 364.929C849.677 367.006 848.521 370.244 846.552 371.557C845.246 372.428 844.857 372.254 843.405 371.992C841.565 370.871 840.971 369.108 840.107 367.235C838.821 367.34 838.199 367.421 837.132 368.227C836.175 368.951 835.22 369.693 834.223 370.364C830.483 372.88 827.489 371.969 823.354 371.186C832.631 357.286 843.894 344.717 853.385 330.947Z"/>
	<path fill="#FEFEFE" d="M934.274 249.289C936.935 249.114 939.618 249.07 942.284 248.971Q942.716 327.913 945.033 406.822C941.958 407.353 938.986 407.484 935.87 407.55C934.456 403.346 932.36 399.251 930.526 395.213C923.745 380.288 914.265 361.912 899.195 353.837C890.306 364.837 882.673 378.453 876.124 390.948C869.627 368.388 864.074 345.337 854.881 323.66C844.417 330.591 797.962 399.169 787.8 414.758C787.182 415.662 786.416 416.468 785.7 417.296C775.949 418.372 766.118 418.863 756.328 419.466C754.942 404.218 753.036 389.016 752.008 373.738C760.384 365.558 769.756 355.313 775.256 344.968C767.517 352.247 758.447 363.682 751.9 372.146C750.249 354.78 749.563 337.295 748.441 319.887C753.321 314.044 762.628 306.957 765.906 300.46L765.561 300.062C763.069 301.402 751.493 313.867 748.612 316.753C747.284 309.467 747.335 301.708 746.953 294.304Q745.923 275.369 745.202 256.42C772.686 257.829 800.355 255.986 827.796 254.588L934.274 249.289Z"/>
	<path fill="#010101" d="M264.96 543.734Q282.732 543.398 300.508 543.475Q303.519 593.136 305.858 642.833C307.182 672.244 308.136 701.646 309.878 731.039C310.367 739.302 310.759 747.61 311.654 755.841C312.349 762.229 313.615 768.694 314.011 775.091C314.087 776.323 313.988 777.135 313.53 778.276C312.049 779.926 308.57 779.891 306.448 780.1C297.633 780.968 288.683 781.226 279.837 781.726Q252.805 783.34 225.745 784.393Q160.995 786.795 96.3778 791.599C86.2954 792.591 76.0554 793.676 65.9153 793.546C62.5497 784.04 61.8488 771.764 60.8593 761.73C58.3487 736.27 57.2098 710.626 55.6521 685.091C53.5568 650.744 51.3386 616.496 50.2193 582.095C49.9359 573.386 48.2058 553.597 50.1139 546.27L51.0349 545.868L50.4806 545.708C58.0999 545.107 65.9209 545.458 73.5721 545.388L122.006 545.162Q193.487 544.834 264.96 543.734Z"/>
	<path fill="#FEFEFE" d="M264.38 547.728Q281.143 547.39 297.909 547.463C298.746 555.322 298.695 563.361 298.983 571.262L300.551 611.83C302.688 666.613 303.798 721.394 308.609 776.025C292.103 777.646 275.295 777.966 258.726 778.522L201.264 780.834C165.925 782.456 130.69 785.998 95.3755 787.568C87.3664 788.073 79.3934 788.683 71.364 788.735C63.6257 755.55 63.0579 720.795 60.6803 686.95C57.4507 640.978 53.8276 595.013 53.0816 548.909C71.0297 548.26 89.0191 548.874 106.973 548.808L208.206 548.305C226.924 548.174 245.672 548.273 264.38 547.728Z"/>
	<path fill="#010101" d="M278.728 558.724C279.6 558.474 279.759 558.629 280.607 558.854C281.062 559.417 281.322 559.871 281.425 560.6C282.325 566.949 282.146 573.87 282.471 580.305Q283.709 601.344 284.405 622.407L285.591 662.113C286.281 679.585 287.22 697.101 287.327 714.591C287.333 715.56 287.469 718.931 286.713 719.505C285.358 720.534 282.283 720.553 280.639 720.712C242.764 724.387 204.419 725.383 166.424 727.624L115.558 730.521C103.147 731.244 90.6702 732.384 78.234 731.963C77.9584 731.494 77.8278 731.328 77.675 730.736C76.5445 726.356 76.669 720.582 76.3005 716.029Q74.3522 688.573 73.3591 661.065C72.0465 632.508 69.5369 603.861 69.0967 575.285C69.0728 573.735 68.9107 571.374 69.7323 570.034C70.4104 568.929 75.5523 569.147 76.9073 569.097C115.117 567.687 153.306 565.279 191.499 563.48Q218.915 562.259 246.317 560.74C257.096 560.17 267.999 559.893 278.728 558.724Z"/>
	<path fill="#FEFEFE" d="M79.6194 691.726Q86.0357 695.677 92.5284 699.502L89.318 701.091C86.4131 702.258 83.5809 703.825 80.7714 705.217C80.2499 700.735 79.9599 696.226 79.6194 691.726Z"/>
	<path fill="#FEFEFE" d="M77.2399 654.573C90.0097 661.117 102.478 669.303 114.421 677.237C120.962 681.582 127.348 686.332 134.3 689.999C137.838 691.866 144.085 695.269 148.104 694.553C149.146 694.367 149.713 694.198 150.78 694.455C151.146 695.645 148.411 699.842 147.776 701.336C144.624 708.758 143.874 716.858 142.867 724.778C124.238 726.833 105.108 727.31 86.375 728.208L82.7976 728.263C81.9918 723.905 81.6318 719.527 81.4436 715.104C92.9797 713.751 104.479 711.931 116.005 710.468C122.181 709.684 138.016 708.999 142.929 706.777C144.21 706.197 145.457 705.048 145.755 703.633C146.095 702.021 145.352 700.428 144.354 699.206C137.747 691.117 90.6736 683.168 78.5446 681.579Q77.9846 668.071 77.2399 654.573Z"/>
	<path fill="#FEFEFE" d="M189.209 677.121C198.397 676.203 207.063 677.325 214.596 683.14C226.052 691.982 230.131 705.567 232.016 719.265C218.309 719.8 204.579 720.855 190.878 721.614C177.129 723.201 163.081 723.203 149.272 724.534C149.439 713.947 151.022 704.298 157.199 695.425C164.371 685.123 177.162 679.302 189.209 677.121Z"/>
	<path fill="#FEFEFE" d="M274.289 563.717C275.417 563.593 276.027 563.475 277.041 564.04C278.253 567.491 278.41 589.98 278.488 595.08C266.452 607.175 256.251 620.985 245.614 634.286C240.691 640.441 235.972 646.67 231.225 652.957C228.722 656.272 225.832 659.539 223.75 663.128C222.886 664.617 222.524 665.771 222.508 667.482C223.159 668.942 223.375 669.118 224.684 670.054C227.125 670.338 229.332 668.84 231.255 667.501C236.651 663.74 241.369 658.633 246.206 654.157Q256.164 645.081 266.242 636.137C270.328 632.467 274.596 628.236 279.381 625.527C279.524 625.446 279.67 625.37 279.815 625.291C280.159 633.985 280.238 642.716 280.847 651.394C269.759 654.301 238.044 665.893 230.607 674.082C229.497 675.305 228.409 676.988 228.775 678.722C229.006 679.814 230.003 681.028 230.971 681.569C232.288 682.305 234.182 681.991 235.601 681.757C240.583 680.936 245.522 679.079 250.43 677.854L281.479 670.29C281.423 677.665 281.813 685.032 282.131 692.397C273.512 692.86 264.886 693.523 256.27 693.933C251.652 694.153 246.338 693.514 241.88 694.642C240.733 694.932 239.395 695.597 238.859 696.702C238.248 697.96 238.376 699.121 238.844 700.408C242.019 709.141 273.6 712.493 282.268 715.712C281.149 716.845 242.654 718.89 237.668 719.09C236.241 705.114 230.187 691.016 219.76 681.427C211.101 673.463 200.096 670.758 188.505 671.39C178.441 671.938 166.874 676.963 159.475 683.789C157.234 685.857 155.416 688.365 153.391 690.638C151.521 686.911 149.422 683.838 146.49 680.86C137.117 671.339 125.432 664.317 114.275 657.124Q95.7104 644.908 76.4734 633.781Q74.903 611.762 73.8639 589.711C79.1973 595.851 83.9319 602.792 88.9473 609.212C107.246 632.635 127.561 658.9 151.436 676.735C153.567 678.095 155.844 679.728 158.308 680.382C159.659 680.741 160.736 680.841 162 680.163C162.341 679.593 162.554 679.124 162.571 678.445C162.72 672.542 155.358 664.203 151.985 659.421C143.937 648.012 135.577 636.347 126.724 625.555C117.685 614.537 107.596 603.843 98.0409 593.255C91.6334 586.154 84.5939 579.753 78.3367 572.477C90.7588 572.528 103.114 572.053 115.521 571.529Q123.241 586.771 130.437 602.268C139.133 621.049 150.286 647.344 163.562 662.943C167.232 667.255 169.83 667.342 175.223 667.769C176.646 666.362 177.837 664.767 179.072 663.196C175.353 657.132 172.772 649.961 169.892 643.452Q161.419 624.201 152.746 605.04C148.149 595.127 138.944 580.037 136.041 570.66C145.636 570.256 155.224 569.444 164.832 569.473C167.348 580.892 168.368 594.616 170.286 606.53C172.825 622.305 176.606 637.464 180.577 652.897C181.378 656.01 181.589 661.3 183.487 663.914C184.204 664.903 185.588 665.572 186.767 665.747C188.066 665.939 189.44 665.671 190.468 664.821C191.522 663.949 191.778 662.936 191.953 661.654C193.12 653.102 191.884 643.432 191.43 634.794Q190.421 615.5 189.188 596.22C188.551 586.842 187.599 577.435 187.427 568.036L216.54 566.732C214.797 576.017 212.756 585.293 211.389 594.641C210.168 603.001 209.545 611.44 208.236 619.787C206.742 629.322 201.559 654.346 202.631 663.047C202.869 664.973 203.41 666.263 204.997 667.434C205.868 667.595 206.48 667.89 207.333 667.538C211.009 666.023 215.034 650.187 216.592 646.016C223.048 628.738 231.135 611.629 239.025 594.948C243.698 585.068 248.667 575.201 252.593 565.001L274.289 563.717Z"/>
	<path fill="#010101" d="M626.257 238.768L626.863 238.802C627.776 239.913 627.817 241.187 627.935 242.571C629.13 256.694 629.034 271.074 629.76 285.244C631.712 323.352 633.538 361.495 636.002 399.574Q637.836 426.249 640.209 452.882C641.167 463.388 643.444 474.918 642.455 485.412C641.948 485.873 641.465 486.326 640.868 486.67C638.931 487.785 636.254 488.159 634.06 488.344C593.786 491.738 553.329 493.674 513.011 496.574L440.673 502.183C429.244 503.062 417.214 504.743 405.767 504.549C404.146 504.522 402.671 504.28 401.109 503.862C400.69 503.675 400.391 503.577 400.039 503.231C398.923 502.132 398.445 500.249 398.215 498.762C396.983 490.812 396.959 482.279 396.43 474.24L393.001 418.579Q388.788 360.5 386.217 302.326C385.358 283.32 383.941 264.096 384.233 245.075C395.54 243.868 407.14 243.765 418.503 243.446C430.854 243.1 443.206 242.37 455.561 242.204C463.725 242.094 471.891 242.466 480.057 242.405C501.806 242.244 523.543 241.009 545.288 240.617C572.23 240.13 599.357 240.359 626.257 238.768Z"/>
	<path fill="#FEFEFE" d="M603.115 244.276Q614.088 243.81 625.071 243.867C624.94 261.919 626.083 280.076 626.713 298.119Q628.811 361.317 632.841 424.421C634.023 443.637 635.814 462.83 636.815 482.05C624.004 483.452 611.039 484.057 598.178 484.898L541.197 488.756C500.583 491.604 460.027 495.457 419.41 498.13C414.645 498.684 409.77 498.821 404.979 499.134C403.991 475.479 401.859 451.937 400.136 428.335L394.856 350.003L391.062 294.647C390.088 279.047 389.423 263.476 387.562 247.949Q429.787 248.109 472 247.075Q537.568 246.173 603.115 244.276Z"/>
	<path fill="#010101" d="M605.83 252.212C606.905 252.061 607.684 252.125 608.761 252.205C609.546 252.85 609.919 253.048 610.168 254.084C610.802 256.72 610.426 260.232 610.53 263.003L611.6 286.439L616.253 389.12C616.522 395.003 619.38 421.497 616.952 425.055C615.959 425.852 615.115 426.247 613.867 426.44C611.81 426.758 609.645 426.483 607.564 426.653C598.972 427.355 590.398 427.758 581.787 428.184C537.664 430.365 493.695 434.486 449.647 437.735C438.369 438.567 427.094 439.726 415.802 440.327C414.509 439.956 414.228 439.86 413.279 438.923C411.439 434.106 410.031 399.237 409.554 391.948Q406.973 354.056 404.783 316.14C403.929 301.354 402.673 286.232 402.88 271.424C402.91 269.248 403.157 267.438 403.977 265.417C404.653 264.806 404.688 264.607 405.634 264.454C409.362 263.852 415.592 264.842 419.802 264.736Q437.921 264.112 456.011 262.903Q495.101 260.506 534.163 257.698Q570.044 255.57 605.83 252.212Z"/>
	<path fill="#FEFEFE" d="M578.071 404.591C579.337 404.428 581.135 404.025 582.364 404.456C584.867 405.334 585.898 408.037 587.123 410.198C588.973 409.128 591.07 407.68 593.214 407.375C598.157 406.672 595.702 411.382 598.233 413.378C601.488 413.559 604.175 410.629 607.444 410.33C608.433 410.24 609.375 410.463 610.108 411.158C612.76 413.673 612.432 417.941 612.564 421.293Q597.5 421.915 582.457 422.936C570.228 423.431 558.03 424.975 545.797 425.167C554.396 410.132 558.121 421.864 564.364 417.876C569.206 414.783 568.179 409.227 578.071 404.591Z"/>
	<path fill="#FEFEFE" d="M455.899 412.085C468.23 410.855 462.35 416.285 469.837 419.654C472.753 419.513 475.678 417.353 478.435 416.342C480.066 415.744 481.085 415.661 482.7 416.445C485.167 419.199 485.02 421.803 484.899 425.273C487.463 424.739 491.892 423.29 494.3 424.418C495.479 424.971 495.934 425.575 496.407 426.736L495.745 427.718C489.48 430.908 467.338 431.143 459.024 431.706C445.538 433.015 431.58 432.982 418.236 435.265C418.412 431.464 418.859 428.52 421.158 425.36C424.906 420.206 430.511 419.211 436.382 418.246C438.325 419.331 440.292 420.238 442.337 421.112C446.212 416.176 449.953 413.859 455.899 412.085Z"/>
	<path fill="#FEFEFE" d="M604.534 257.776C606.297 260.287 611.518 395.234 611.518 407.907C608.329 407.471 605.098 407.216 601.895 406.89C600.944 405.75 600.024 404.676 598.728 403.912C595.629 402.086 592.473 402.643 589.152 403.492C587.583 402.031 585.952 400.466 583.841 399.858C576.84 397.841 570.273 403.4 565.881 408.226C564.572 409.664 562.875 412.037 561.171 412.894C558.891 414.04 552.931 411.249 547.836 414.507C544.189 416.838 542.448 421.279 541.62 425.332L500.506 428.444C500.376 427.205 500.262 425.934 500.018 424.71C498.949 419.336 493.619 420.402 490.182 417.732C488.241 416.224 487.906 413.596 485.569 412.227C481.823 410.034 474.671 411.951 470.756 413.047C469.071 410.247 466.601 408.045 463.449 407.064C455.8 404.683 447.597 409.975 441.169 413.558C440.471 413.704 440.752 413.706 440.081 413.622C437.025 413.239 433.877 413.018 430.796 413.06C425.759 413.129 420.964 418.344 417.631 421.64C415.692 410.334 416.099 398.123 415.187 386.639C412.103 347.803 409.886 308.524 408.949 269.568C446.055 269.411 483.296 266.658 520.294 264.015C548.394 262.008 576.472 260.352 604.534 257.776Z"/>
	<path fill="#010101" d="M561.395 279.814C562.809 280.01 563.141 279.914 564.154 280.883C564.384 282.929 562.824 285.075 561.879 286.84L560.54 287.102C559.916 286.686 559.595 286.702 559.453 285.89C559.058 283.638 560.199 281.617 561.395 279.814Z"/>
	<path fill="#010101" d="M583.479 292.808C584.759 293.215 584.874 293.184 585.64 294.267C585.611 294.427 585.607 294.593 585.555 294.746C584.856 296.808 581.797 298.145 580.007 299.096C578.952 298.768 578.918 298.753 578.245 297.98C578.805 295.425 581.414 294.154 583.479 292.808Z"/>
	<path fill="#010101" d="M540.726 343.083C542.096 343.451 542.29 343.506 543.251 344.535C544.117 347.2 543.744 349.371 542.788 351.958C541.796 351.767 541.377 351.669 540.679 350.922C539.595 348.195 540.175 345.891 540.726 343.083Z"/>
	<path fill="#010101" d="M588.418 312.637C589.997 312.446 591.719 312.173 593.262 312.662C594.447 313.037 594.485 312.924 595.08 314.078C594.52 315.305 593.818 315.573 592.691 316.208C591.683 316.397 590.519 316.582 589.494 316.486C588.272 316.371 587.562 316.016 586.759 315.132C587.048 313.772 587.397 313.617 588.418 312.637Z"/>
	<path fill="#010101" d="M519.875 333.359C521.08 333.48 521.382 333.444 522.329 334.165L522.291 335.258C521.057 337.255 519.293 338.605 517.531 340.116C516.922 340.377 517.336 340.261 516.241 340.108C515.64 339.018 515.436 338.546 515.778 337.239C516.166 335.755 518.638 334.278 519.875 333.359Z"/>
	<path fill="#010101" d="M569.843 339.18C570.961 339.486 571.548 339.777 572.38 340.634C574.442 342.758 576.369 345.114 576.339 348.138C574.683 348.292 573.826 348.035 572.564 346.968C570.448 345.179 569.961 341.76 569.843 339.18Z"/>
	<path fill="#010101" d="M513.227 313.089C513.783 313.03 514.343 312.968 514.902 312.938C516.423 312.857 516.927 313.119 517.977 314.102L517.835 315.272C516.773 316.609 515.541 316.839 513.98 317.302C512.019 317.553 510.962 317.606 509.385 316.401L509.381 315.358C510.404 313.863 511.593 313.616 513.227 313.089Z"/>
	<path fill="#010101" d="M526.539 280.939C529.461 281.062 531.647 282.194 533.637 284.387C535.302 286.222 535.929 287.761 535.752 290.186C533.785 289.789 532.224 288.597 530.712 287.322C528.539 285.488 526.792 283.827 526.539 280.939Z"/>
	<path fill="#010101" d="M552.574 295.617C556.687 295.32 560.548 295.609 564.342 297.379C568.723 299.423 571.81 303.085 573.263 307.674C575.153 313.638 574.117 320.018 571.067 325.396C567.247 332.132 561.827 335.434 554.617 337.537C549.804 338.01 545.069 337.734 540.802 335.212Q540.027 334.751 539.303 334.214Q538.578 333.677 537.911 333.07Q537.244 332.464 536.641 331.793Q536.038 331.122 535.506 330.395Q534.973 329.667 534.516 328.89Q534.06 328.112 533.683 327.293Q533.306 326.474 533.014 325.621Q532.721 324.768 532.516 323.89C531.106 318.088 532.004 311.976 535.237 306.938C539.293 300.619 545.365 297.094 552.574 295.617Z"/>
	<path fill="#FEFEFE" d="M546.279 308.388C546.478 308.395 546.678 308.391 546.876 308.411C548.664 308.596 549.739 309.171 550.855 310.513C550.73 314.073 545.191 316.998 543.239 320.146C543.118 320.34 543.002 320.537 542.884 320.732C542.399 321.239 541.953 321.256 541.294 321.458L540.245 320.768C539.331 318.916 538.928 317.54 539.502 315.5C540.578 311.677 543.05 310.243 546.279 308.388Z"/>
	<path fill="#010101" d="M270.195 252.217C272.313 252.119 274.475 251.996 276.59 252.182C278.286 252.332 279.408 252.73 280.513 254.094C282.305 261.773 281.904 270.973 282.408 278.92Q284.458 309.449 285.837 340.015L295.412 494.492C295.511 496.345 295.631 498.297 295.18 500.107C293.67 501.317 290.95 501.339 289.057 501.44L57.6247 513.457C54.0382 513.532 50.2484 514.194 46.6875 513.648C44.9616 513.383 43.1494 512.878 42.1918 511.267C41.0081 509.276 40.3583 484.615 40.1157 480.88Q34.5521 403.195 31.3066 325.379Q30.2239 301.869 30.4457 278.335C30.4446 272.26 29.8171 265.316 30.8147 259.343C32.4057 257.672 36.756 257.831 38.9674 257.699C53.7453 256.816 68.5379 256.773 83.3346 256.533Q112.948 255.871 142.567 255.649Q206.406 254.853 270.195 252.217Z"/>
	<path fill="#FEFEFE" d="M273.018 257.716C274.773 257.491 276.336 257.537 277.987 258.176C279.081 260.737 281.308 327.256 281.645 335.306Q284.848 415.472 289.021 495.592C279.919 496.745 270.265 496.504 261.092 496.807C241.731 497.446 222.399 497.876 203.047 498.831C152.026 501.349 101.076 505.731 50.1041 509.082C47.956 506.601 47.0963 476.338 46.7578 471.636Q38.3194 367.071 34.7036 262.229C60.6438 261.397 86.656 261.857 112.606 261.736Q171.547 261.089 230.459 259.138C244.631 258.62 258.868 258.597 273.018 257.716Z"/>
	<path fill="#010101" d="M255.177 266.698C257.251 266.343 259.841 266.221 261.84 266.914C264.999 270.443 270.214 420.202 269.43 436.643C262.714 437.538 255.541 437.284 248.751 437.788L203.326 441.56Q155.917 445.388 108.428 448.031C93.5939 448.917 78.725 450.149 63.8745 450.614C63.3465 450.648 62.8186 450.695 62.2895 450.7C61.3371 450.708 60.4897 450.51 59.8658 449.76C59.1272 448.872 58.8239 447.976 58.7007 446.847C55.8581 420.803 55.3639 394.297 53.6734 368.137Q51.5935 340.067 50.3196 311.949C49.7909 300.772 49.0257 289.523 49.5475 278.335C55.5812 277.689 62.0117 278.202 68.103 278.094Q83.1961 277.691 98.2725 276.872C150.496 274.249 203.197 272.43 255.177 266.698Z"/>
	<path fill="#FEFEFE" d="M250.884 272.75C253.556 272.477 256.297 272.427 258.982 272.28L260.555 321.249C260.848 328.847 262.088 337.435 261.27 344.981C260.311 344.206 259.381 343.697 258.156 343.49C247.644 341.706 229.132 349.001 220.626 355.206C205.954 365.909 193.663 384.441 187.436 401.397C183.243 412.813 180.714 425.36 178.812 437.354C172.758 438.556 166.34 438.403 160.183 438.452C158.335 431.734 156.214 425.629 152.805 419.502C142.561 401.092 131.939 392.175 111.799 386.451C94.6847 382.214 77.3153 384.125 61.2904 391.514C60.1923 378.206 59.6915 364.764 58.7414 351.426C57.1222 328.695 55.2377 305.995 55.1074 283.195C76.7174 283.616 98.4369 282.253 120.018 281.229Q185.52 278.052 250.884 272.75Z"/>
	<path fill="#010101" d="M162.04 343.592C164.847 343.393 167.548 343.439 170.292 344.138C172.346 344.66 173.743 345.203 174.894 347.093C175.052 348.491 174.955 349.055 174.315 350.309C173.636 350.643 173.53 350.856 172.764 350.7C164.284 348.969 160.293 349.707 153.11 354.424C151.704 355.671 150.258 357.113 148.679 358.134C147.532 358.876 145.812 359.38 144.482 358.943C143.716 358.691 143.792 358.254 143.528 357.568C143.752 356.169 144.048 355.144 144.844 353.953C148.513 348.46 155.804 344.997 162.04 343.592Z"/>
	<path fill="#010101" d="M107.979 314.667C110.44 314.406 116.608 314.881 118.367 316.664C119.339 317.649 119.521 318.575 119.546 319.895C117.374 323.905 107.937 321.185 103.715 322.202C99.2096 323.287 95.3132 325.74 91.5409 328.335C89.5542 330.048 87.9807 331.429 85.305 331.72C84.08 331.297 84.1121 331.37 83.5112 330.229C83.5722 328.577 83.9153 327.521 84.8915 326.164C89.8169 319.32 100.037 315.94 107.979 314.667Z"/>
	<path fill="#010101" d="M221.432 301.654C224.516 301.483 228.678 301.575 231.571 302.623C232.912 303.109 233.38 303.493 234.005 304.747C233.717 305.791 233.264 306.819 232.288 307.42C230.564 308.482 217.872 308.686 213.861 309.97C209.557 311.349 206.081 313.825 202.433 316.394C200.208 318.394 198.5 320.479 195.294 320.494C194.716 320.076 194.33 320.046 194.248 319.27C194.091 317.784 194.899 316.387 195.733 315.216C201.179 307.568 212.455 303.006 221.432 301.654Z"/>
</svg>
